<svg width="32" height="24" viewBox="0 0 32 24" fill="none" xmlns="http://www.w3.org/2000/svg">
<g id="Group 10 1" clip-path="url(#clip0_849_3658)">
<g id="Clip path group">
<mask id="mask0_849_3658" style="mask-type:luminance" maskUnits="userSpaceOnUse" x="0" y="0" width="32" height="24">
<g id="clip-path">
<path id="Rectangle 9" d="M31.75 0H0.25V24H31.75V0Z" fill="white"/>
</g>
</mask>
<g mask="url(#mask0_849_3658)">
<g id="Group 9">
<path id="Path 9" d="M28 4.5C28.445 4.5 28.88 4.36804 29.25 4.12081C29.62 3.87357 29.9084 3.52217 30.0787 3.11104C30.249 2.69991 30.2936 2.24751 30.2068 1.81105C30.1199 1.37459 29.9057 0.973679 29.591 0.659011C29.2763 0.344343 28.8754 0.130051 28.439 0.0432341C28.0025 -0.0435826 27.5501 0.000974894 27.139 0.171272C26.7278 0.341569 26.3764 0.629957 26.1292 0.999968C25.882 1.36998 25.75 1.80499 25.75 2.25C25.75 2.84674 25.9871 3.41903 26.409 3.84099C26.831 4.26295 27.4033 4.5 28 4.5ZM28 1.5C28.1483 1.5 28.2933 1.54399 28.4167 1.6264C28.54 1.70881 28.6361 1.82594 28.6929 1.96299C28.7497 2.10003 28.7645 2.25083 28.7356 2.39632C28.7066 2.5418 28.6352 2.67544 28.5303 2.78033C28.4254 2.88522 28.2918 2.95665 28.1463 2.98559C28.0008 3.01453 27.85 2.99968 27.713 2.94291C27.5759 2.88615 27.4588 2.79002 27.3764 2.66668C27.294 2.54334 27.25 2.39834 27.25 2.25C27.25 2.05109 27.329 1.86032 27.4697 1.71967C27.6103 1.57902 27.8011 1.5 28 1.5Z" fill="#081B25"/>
<path id="Path 10" d="M10 12H8.5C8.30109 12 8.11032 12.079 7.96967 12.2197C7.82902 12.3603 7.75 12.5511 7.75 12.75C7.75 12.9489 7.82902 13.1397 7.96967 13.2803C8.11032 13.421 8.30109 13.5 8.5 13.5H10C10.5967 13.5 11.169 13.2629 11.591 12.841C12.0129 12.419 12.25 11.8467 12.25 11.25V5.25C12.25 4.65326 12.0129 4.08097 11.591 3.65901C11.169 3.23705 10.5967 3 10 3H8.5C8.30109 3 8.11032 3.07902 7.96967 3.21967C7.82902 3.36032 7.75 3.55109 7.75 3.75C7.75 3.94891 7.82902 4.13968 7.96967 4.28033C8.11032 4.42098 8.30109 4.5 8.5 4.5H10C10.1989 4.5 10.3897 4.57902 10.5303 4.71967C10.671 4.86032 10.75 5.05109 10.75 5.25V7.5H8.5C8.30109 7.5 8.11032 7.57902 7.96967 7.71967C7.82902 7.86032 7.75 8.05109 7.75 8.25C7.75 8.44891 7.82902 8.63968 7.96967 8.78033C8.11032 8.92098 8.30109 9 8.5 9H10.75V11.25C10.75 11.4489 10.671 11.6397 10.5303 11.7803C10.3897 11.921 10.1989 12 10 12Z" fill="#081B25"/>
<path id="Path 11" d="M16 4.5H17.5C17.6989 4.5 17.8897 4.42098 18.0303 4.28033C18.171 4.13968 18.25 3.94891 18.25 3.75C18.25 3.55109 18.171 3.36032 18.0303 3.21967C17.8897 3.07902 17.6989 3 17.5 3H16C15.4033 3 14.831 3.23705 14.409 3.65901C13.9871 4.08097 13.75 4.65326 13.75 5.25V11.25C13.75 11.8467 13.9871 12.419 14.409 12.841C14.831 13.2629 15.4033 13.5 16 13.5C16.5967 13.5 17.169 13.2629 17.591 12.841C18.0129 12.419 18.25 11.8467 18.25 11.25V8.25C18.25 7.65326 18.0129 7.08097 17.591 6.65901C17.169 6.23705 16.5967 6 16 6C15.7439 6.00249 15.4902 6.04917 15.25 6.138V5.25C15.25 5.05109 15.329 4.86032 15.4697 4.71967C15.6103 4.57902 15.8011 4.5 16 4.5ZM16 7.5C16.1989 7.5 16.3897 7.57902 16.5303 7.71967C16.671 7.86032 16.75 8.05109 16.75 8.25V11.25C16.75 11.4489 16.671 11.6397 16.5303 11.7803C16.3897 11.921 16.1989 12 16 12C15.8011 12 15.6103 11.921 15.4697 11.7803C15.329 11.6397 15.25 11.4489 15.25 11.25V8.25C15.25 8.05109 15.329 7.86032 15.4697 7.71967C15.6103 7.57902 15.8011 7.5 16 7.5Z" fill="#081B25"/>
<path id="Path 12" d="M22 13.5C22.5967 13.5 23.169 13.2629 23.591 12.841C24.0129 12.419 24.25 11.8467 24.25 11.25V5.25C24.25 4.65326 24.0129 4.08097 23.591 3.65901C23.169 3.23705 22.5967 3 22 3C21.4033 3 20.831 3.23705 20.409 3.65901C19.9871 4.08097 19.75 4.65326 19.75 5.25V11.25C19.75 11.8467 19.9871 12.419 20.409 12.841C20.831 13.2629 21.4033 13.5 22 13.5ZM21.25 5.25C21.25 5.05109 21.329 4.86032 21.4697 4.71967C21.6103 4.57902 21.8011 4.5 22 4.5C22.1989 4.5 22.3897 4.57902 22.5303 4.71967C22.671 4.86032 22.75 5.05109 22.75 5.25V11.25C22.75 11.4489 22.671 11.6397 22.5303 11.7803C22.3897 11.921 22.1989 12 22 12C21.8011 12 21.6103 11.921 21.4697 11.7803C21.329 11.6397 21.25 11.4489 21.25 11.25V5.25Z" fill="#081B25"/>
<path id="Path 13" d="M28.2559 11.151C28.0751 11.0677 27.8687 11.0595 27.682 11.1284C27.4953 11.1972 27.3436 11.3374 27.2602 11.5181C27.1769 11.6988 27.1687 11.9053 27.2376 12.092C27.3064 12.2787 27.4466 12.4304 27.6274 12.5138C29.2946 13.2818 30.2524 14.1885 30.2524 15C30.2524 16.599 26.6524 18.651 19.9774 19.305C19.7784 19.315 19.5916 19.4035 19.458 19.5512C19.3244 19.6989 19.2549 19.8936 19.2649 20.0925C19.2748 20.2914 19.3634 20.4782 19.511 20.6119C19.6587 20.7455 19.8534 20.815 20.0524 20.805C20.0764 20.805 20.1011 20.805 20.1274 20.805C27.1939 20.1128 31.7591 17.8373 31.7591 15.0075C31.7591 13.9868 31.1524 12.4905 28.2649 11.1585" fill="#081B25"/>
<path id="Path 14" d="M13.5303 16.7197C13.4611 16.6481 13.3783 16.591 13.2868 16.5516C13.1953 16.5123 13.0969 16.4917 12.9973 16.4908C12.8977 16.4899 12.799 16.5089 12.7068 16.5466C12.6146 16.5843 12.5309 16.64 12.4605 16.7104C12.39 16.7808 12.3343 16.8646 12.2966 16.9568C12.2589 17.0489 12.2399 17.1477 12.2408 17.2473C12.2417 17.3469 12.2624 17.4453 12.3017 17.5368C12.341 17.6283 12.3981 17.711 12.4697 17.7802L14.1362 19.4467C6.68875 19.122 1.75 16.947 1.75 15C1.75 14.199 2.686 13.302 4.318 12.5392C4.49821 12.4549 4.63754 12.3024 4.70534 12.1153C4.77313 11.9283 4.76384 11.7219 4.6795 11.5417C4.59516 11.3615 4.44269 11.2222 4.25562 11.1544C4.06855 11.0866 3.86221 11.0959 3.682 11.1802C0.8455 12.5062 0.25 13.989 0.25 15C0.25 18.5842 7.15 20.661 14.2367 20.9527L12.4697 22.7197C12.3981 22.7889 12.341 22.8717 12.3017 22.9632C12.2624 23.0547 12.2417 23.1531 12.2408 23.2527C12.2399 23.3523 12.2589 23.451 12.2966 23.5432C12.3343 23.6354 12.39 23.7191 12.4605 23.7895C12.5309 23.8599 12.6146 23.9156 12.7068 23.9533C12.799 23.9911 12.8977 24.01 12.9973 24.0092C13.0969 24.0083 13.1953 23.9876 13.2868 23.9483C13.3783 23.909 13.4611 23.8519 13.5303 23.7802L16.5303 20.7802C16.6709 20.6396 16.7498 20.4488 16.7498 20.25C16.7498 20.0511 16.6709 19.8604 16.5303 19.7197L13.5303 16.7197Z" fill="#081B25"/>
</g>
</g>
</g>
</g>
<defs>
<clipPath id="clip0_849_3658">
<rect width="31.5" height="24" fill="white" transform="translate(0.25)"/>
</clipPath>
</defs>
</svg>
