<svg width="44" height="45" viewBox="0 0 44 45" fill="none" xmlns="http://www.w3.org/2000/svg">
<g id="cloud-upload">
<path id="Vector" d="M33.77 14.6533C32.6498 12.0794 30.7165 9.94365 28.2664 8.57351C25.8163 7.20337 22.9846 6.67437 20.2051 7.06758C17.4256 7.46079 14.8517 8.75451 12.8778 10.7505C10.9039 12.7465 9.63889 15.3346 9.27665 18.1183C7.74071 18.4924 6.36678 19.3529 5.35963 20.5713C4.35249 21.7898 3.76605 23.3011 3.68772 24.88C3.6094 26.4589 4.04338 28.0209 4.92498 29.333C5.80659 30.6452 7.08861 31.6374 8.57998 32.1617C8.77012 32.2202 8.9677 32.2511 9.16665 32.2533C9.65288 32.3311 10.1501 32.2126 10.5489 31.9238C10.9478 31.635 11.2155 31.1996 11.2933 30.7133C11.3711 30.2271 11.2526 29.7299 10.9638 29.3311C10.675 28.9322 10.2395 28.6645 9.75331 28.5867C9.06198 28.3371 8.4616 27.8856 8.03008 27.2906C7.59855 26.6956 7.3558 25.9847 7.33331 25.25C7.33331 24.2775 7.71962 23.3449 8.40725 22.6573C9.09489 21.9697 10.0275 21.5833 11 21.5833C11.4862 21.5833 11.9525 21.3902 12.2963 21.0464C12.6402 20.7026 12.8333 20.2362 12.8333 19.75C12.838 17.5817 13.6112 15.4852 15.0155 13.8331C16.4198 12.1809 18.3643 11.0801 20.5035 10.7261C22.6428 10.3721 24.8382 10.788 26.6999 11.8997C28.5615 13.0114 29.9688 14.7471 30.6716 16.7983C30.7764 17.1134 30.9648 17.3941 31.2167 17.6104C31.4685 17.8267 31.7744 17.9706 32.1016 18.0267C33.2041 18.2262 34.2193 18.7577 35.0115 19.55C35.8036 20.3422 36.3349 21.3576 36.5343 22.46C36.7337 23.5625 36.5916 24.6996 36.1271 25.7191C35.6625 26.7387 34.8977 27.592 33.935 28.165C33.512 28.4081 33.2028 28.8093 33.0756 29.2804C32.9484 29.7514 33.0135 30.2537 33.2566 30.6767C33.4998 31.0997 33.901 31.4088 34.372 31.536C34.843 31.6632 35.3453 31.5981 35.7683 31.355C37.1584 30.5482 38.3119 29.39 39.1131 27.9967C39.9143 26.6034 40.3351 25.0239 40.3333 23.4167C40.3277 21.4443 39.6861 19.5262 38.5037 17.9475C37.3213 16.3688 35.6612 15.2135 33.77 14.6533Z" fill="#0ADF9A"/>
<path id="Vector_2" d="M20.1667 28.7517L19.1767 29.8334C18.8218 30.1883 18.3403 30.3877 17.8384 30.3877C17.3364 30.3877 16.855 30.1883 16.5 29.8334C16.1451 29.4784 15.9457 28.997 15.9457 28.495C15.9457 27.993 16.1451 27.5116 16.5 27.1567L20.6984 23.0317C20.8727 22.8648 21.0783 22.7339 21.3034 22.6467C21.7497 22.4633 22.2504 22.4633 22.6967 22.6467C22.9217 22.7339 23.1273 22.8648 23.3017 23.0317L27.5 27.23C27.6719 27.4004 27.8083 27.6032 27.9013 27.8266C27.9944 28.05 28.0423 28.2897 28.0423 28.5317C28.0423 28.7737 27.9944 29.0133 27.9013 29.2367C27.8083 29.4601 27.6719 29.6629 27.5 29.8334C27.3236 30.0119 27.1123 30.1523 26.8794 30.2459C26.6464 30.3395 26.3967 30.3842 26.1458 30.3773C25.8948 30.3705 25.648 30.3121 25.4205 30.2059C25.193 30.0998 24.9898 29.948 24.8234 29.76L23.8334 28.7517V35.3334C23.8334 35.8196 23.6402 36.2859 23.2964 36.6297C22.9526 36.9735 22.4863 37.1667 22 37.1667C21.5138 37.1667 21.0475 36.9735 20.7037 36.6297C20.3599 36.2859 20.1667 35.8196 20.1667 35.3334V28.7517Z" fill="#0ADF9A"/>
</g>
</svg>
