<svg width="24" height="24" viewBox="0 0 24 24" fill="none" xmlns="http://www.w3.org/2000/svg">
<path d="M10.5548 19.3904C9.09972 19.3907 7.67438 18.9784 6.44413 18.2015C5.21388 17.4245 4.22912 16.3146 3.60411 15.0006C3.56643 14.9263 3.54401 14.8451 3.53816 14.762C3.53231 14.6788 3.54316 14.5953 3.57006 14.5164C3.59696 14.4375 3.63937 14.3648 3.69479 14.3026C3.75022 14.2403 3.81753 14.1898 3.89279 14.1539C3.96804 14.1181 4.0497 14.0976 4.13297 14.0938C4.21624 14.09 4.29943 14.1028 4.37765 14.1317C4.45587 14.1605 4.52753 14.2046 4.58843 14.2616C4.64932 14.3185 4.69821 14.387 4.73222 14.4631C5.25569 15.5639 6.0806 16.4937 7.1112 17.1446C8.1418 17.7955 9.33586 18.1408 10.5548 18.1404C14.1094 18.1404 17 15.2498 17 11.6952C17 8.14056 14.1094 5.24998 10.5548 5.24998C9.33586 5.24961 8.1418 5.5949 7.1112 6.24579C6.0806 6.89667 5.25569 7.82647 4.73222 8.92727C4.65849 9.07278 4.53079 9.18369 4.3764 9.23633C4.222 9.28897 4.05315 9.27916 3.90589 9.209C3.75863 9.13884 3.64463 9.01388 3.58825 8.86082C3.53186 8.70775 3.53755 8.53871 3.60411 8.38978C4.22912 7.07579 5.21388 5.96592 6.44413 5.18894C7.67438 4.41196 9.09972 3.99971 10.5548 4C14.7981 4 18.25 7.4519 18.25 11.6952C18.25 15.9385 14.7981 19.3904 10.5548 19.3904Z" fill="black"/>
<path d="M2.73739 14.2834C1.75459 12.8362 1.75381 10.5558 2.73739 9.10696C3.82019 7.51245 5.71977 7.50113 6.80999 9.10696C7.79279 10.5523 7.79357 12.8346 6.80999 14.2834C5.72719 15.878 3.82761 15.8893 2.73739 14.2834ZM3.25027 11.6952C3.25027 13.7014 4.72408 15.1307 5.77563 13.5815C6.47015 12.5589 6.47015 10.8315 5.77563 9.80891C4.72213 8.25776 3.25027 9.6925 3.25027 11.6952Z" fill="black"/>
<path d="M3.69968 13.9217C2.74696 13.9217 2.00049 12.9452 2.00049 11.6952C2.00049 10.4452 2.74696 9.46866 3.69968 9.46866C4.6524 9.46866 5.39888 10.4452 5.39888 11.6952C5.39888 12.9452 4.6524 13.9217 3.69968 13.9217ZM3.69968 10.7186C3.54343 10.7186 3.25047 11.0893 3.25047 11.6952C3.25047 12.301 3.54148 12.6717 3.69968 12.6717C3.85788 12.6717 4.14889 12.301 4.14889 11.6952C4.14889 11.0893 3.85788 10.7186 3.69968 10.7186Z" fill="black"/>
<path d="M21.375 11.0702H19.5531C19.1179 11.0696 18.6881 10.9738 18.2938 10.7897L17.0575 10.2108C16.9831 10.176 16.9163 10.1269 16.8609 10.0662C16.8055 10.0056 16.7626 9.93462 16.7346 9.85739C16.7067 9.78017 16.6942 9.69819 16.6979 9.61615C16.7016 9.5341 16.7215 9.45359 16.7563 9.37921C16.7911 9.30482 16.8403 9.23803 16.9009 9.18264C16.9615 9.12725 17.0325 9.08435 17.1097 9.05639C17.187 9.02842 17.2689 9.01594 17.351 9.01965C17.433 9.02337 17.5135 9.04321 17.5879 9.07804L18.8238 9.65733C19.0522 9.76404 19.3011 9.81963 19.5531 9.82021H21.375C21.5407 9.82021 21.6997 9.88606 21.8169 10.0033C21.9341 10.1205 22 10.2794 22 10.4452C22 10.611 21.9341 10.7699 21.8169 10.8871C21.6997 11.0043 21.5407 11.0702 21.375 11.0702Z" fill="black"/>
<path d="M16.7568 14.0112C16.722 13.9369 16.7021 13.8564 16.6984 13.7744C16.6947 13.6924 16.7071 13.6104 16.735 13.5333C16.763 13.4561 16.8058 13.3851 16.8612 13.3245C16.9165 13.2639 16.9833 13.2148 17.0576 13.1799L18.2935 12.6007C18.688 12.4166 19.118 12.3209 19.5533 12.3202H21.3751C21.5409 12.3202 21.6999 12.386 21.8171 12.5032C21.9343 12.6205 22.0001 12.7794 22.0001 12.9452C22.0001 13.1109 21.9343 13.2699 21.8171 13.3871C21.6999 13.5043 21.5409 13.5702 21.3751 13.5702H19.5533C19.3011 13.5707 19.0521 13.6261 18.8236 13.7327L17.5881 14.3123C17.5137 14.3472 17.4332 14.367 17.3512 14.3707C17.2692 14.3744 17.1873 14.362 17.1101 14.334C17.0329 14.306 16.9619 14.2631 16.9013 14.2077C16.8407 14.1523 16.7916 14.0856 16.7568 14.0112Z" fill="black"/>
<path d="M16.5071 15.2451C15.3173 14.1983 14.354 13.7565 13.7216 13.9678C13.1118 14.1713 12.6318 15.3436 11.3869 15.367C10.7228 15.3795 10.0814 15.0647 9.47752 14.4295C9.41528 14.3713 9.36558 14.3011 9.3315 14.223C9.29741 14.1449 9.27965 14.0606 9.2793 13.9754C9.27896 13.8902 9.29604 13.8059 9.32949 13.7275C9.36295 13.6492 9.41207 13.5785 9.47385 13.5198C9.53562 13.4611 9.60874 13.4157 9.68871 13.3863C9.76869 13.3569 9.85382 13.3442 9.9389 13.3489C10.024 13.3536 10.1072 13.3757 10.1834 13.4137C10.2596 13.4518 10.3273 13.505 10.3822 13.5702C10.7298 13.9346 11.0689 14.1252 11.363 14.117C11.9591 14.1061 12.3497 13.1084 13.3255 12.7823C14.4349 12.4116 15.7454 12.91 17.3329 14.3057C17.451 14.4168 17.5213 14.5696 17.5289 14.7316C17.5365 14.8936 17.4808 15.0523 17.3736 15.174C17.2664 15.2957 17.1161 15.371 16.9544 15.3839C16.7927 15.3968 16.6323 15.3464 16.5071 15.2432V15.2451Z" fill="black"/>
<path d="M9.5781 16.8068C9.57357 16.7247 9.58528 16.6425 9.61257 16.565C9.63986 16.4874 9.68218 16.416 9.73712 16.3548C9.79206 16.2936 9.85853 16.2439 9.93273 16.2084C10.0069 16.173 10.0874 16.1525 10.1695 16.1482C10.5242 16.1295 10.7718 16.0424 10.9062 15.8901C11.1058 15.6643 11.0234 15.283 11.3023 14.4205C11.355 14.2649 11.4669 14.1364 11.6137 14.0626C11.7606 13.9889 11.9305 13.9759 12.0868 14.0266C12.2431 14.0772 12.3732 14.1873 12.4489 14.3331C12.5246 14.479 12.5398 14.6487 12.4913 14.8057C12.4125 15.049 12.3537 15.2984 12.3156 15.5514C12.2585 15.8971 12.1878 16.3272 11.8437 16.7174C11.4789 17.131 10.9382 17.3592 10.2367 17.3982C10.1546 17.4028 10.0724 17.391 9.99482 17.3638C9.91726 17.3365 9.84584 17.2941 9.78466 17.2392C9.72348 17.1843 9.67374 17.1178 9.63829 17.0436C9.60285 16.9694 9.58239 16.8889 9.5781 16.8068Z" fill="black"/>
<path d="M13.9924 15.992C13.8854 15.992 13.7802 15.9645 13.6869 15.9121C13.5936 15.8598 13.5153 15.7844 13.4595 15.6931C13.4037 15.6019 13.3722 15.4978 13.3681 15.3909C13.364 15.2841 13.3874 15.1779 13.4361 15.0826C13.6767 14.6112 13.6881 14.0959 13.4385 13.5526C13.3693 13.402 13.3627 13.23 13.4203 13.0746C13.4779 12.9191 13.5949 12.7929 13.7455 12.7237C13.8961 12.6545 14.0681 12.648 14.2235 12.7055C14.379 12.7631 14.5052 12.8801 14.5744 13.0307C14.9931 13.9424 14.9548 14.8573 14.5494 15.6514C14.497 15.754 14.4172 15.8401 14.3189 15.9002C14.2206 15.9603 14.1076 15.9921 13.9924 15.992Z" fill="black"/>
<path d="M12.566 14.2291L11.625 13.5233C11.5593 13.4741 11.504 13.4124 11.4622 13.3417C11.4204 13.2711 11.3929 13.1929 11.3813 13.1117C11.3697 13.0304 11.3742 12.9477 11.3946 12.8682C11.4149 12.7887 11.4508 12.714 11.5 12.6483C11.5492 12.5827 11.6109 12.5273 11.6816 12.4855C11.7522 12.4437 11.8304 12.4162 11.9116 12.4046C11.9929 12.393 12.0756 12.3975 12.1551 12.4179C12.2346 12.4382 12.3093 12.4741 12.375 12.5233L13.316 13.2292C13.4486 13.3286 13.5363 13.4767 13.5597 13.6408C13.5831 13.8049 13.5404 13.9715 13.441 14.1042C13.3415 14.2368 13.1935 14.3244 13.0294 14.3479C12.8653 14.3713 12.6986 14.3286 12.566 14.2291Z" fill="black"/>
<path d="M13.3256 10.6085C12.3522 10.2827 11.9585 9.2843 11.3636 9.27336C11.0682 9.26828 10.73 9.45734 10.3823 9.82023C10.2659 9.92903 10.1124 9.98926 9.95303 9.98861C9.7937 9.98797 9.64064 9.9265 9.52512 9.81676C9.4096 9.70703 9.34035 9.55732 9.33153 9.39824C9.3227 9.23915 9.37497 9.0827 9.47765 8.96087C10.0815 8.32728 10.7237 8.01244 11.3874 8.02338C12.6292 8.04682 13.1147 9.21985 13.7217 9.42297C14.3537 9.6339 15.3174 9.19211 16.5072 8.14525C16.5683 8.08783 16.6402 8.04327 16.7188 8.01422C16.7974 7.98517 16.8811 7.97222 16.9648 7.97615C17.0485 7.98008 17.1305 8.0008 17.2061 8.03708C17.2816 8.07336 17.3491 8.12446 17.4045 8.18735C17.4599 8.25023 17.5021 8.32361 17.5285 8.40313C17.555 8.48264 17.5652 8.56666 17.5585 8.65019C17.5518 8.73373 17.5284 8.81507 17.4897 8.88937C17.451 8.96368 17.3977 9.02944 17.333 9.08274C16.224 10.0593 14.7256 11.0761 13.3256 10.6085Z" fill="black"/>
<path d="M11.8973 9.40149C11.7652 9.40148 11.6365 9.35962 11.5297 9.28194C11.4229 9.20425 11.3434 9.09472 11.3027 8.96907C11.0238 8.10151 11.107 7.72651 10.9066 7.49956C10.7723 7.34722 10.5246 7.26011 10.1699 7.24136C10.0879 7.23695 10.0075 7.21642 9.93332 7.18093C9.85918 7.14545 9.79276 7.09571 9.73784 7.03455C9.62693 6.91104 9.56963 6.74854 9.57854 6.58278C9.58745 6.41702 9.66184 6.26159 9.78535 6.15068C9.90886 6.03977 10.0714 5.98247 10.2371 5.99138C10.9402 6.03044 11.4793 6.25778 11.8441 6.67067C12.2348 7.11285 12.2715 7.59995 12.3418 7.98823C12.3784 8.18942 12.4285 8.38791 12.4918 8.58236C12.5225 8.67623 12.5304 8.77604 12.5151 8.87359C12.4998 8.97115 12.4615 9.06369 12.4035 9.14361C12.3455 9.22354 12.2694 9.28858 12.1814 9.3334C12.0934 9.37823 11.996 9.40156 11.8973 9.40149Z" fill="black"/>
<path d="M14.0055 10.7237C13.9008 10.7237 13.7977 10.6973 13.7058 10.647C13.6139 10.5967 13.5361 10.5241 13.4796 10.4359C13.4231 10.3477 13.3897 10.2467 13.3824 10.1422C13.3751 10.0377 13.3942 9.933 13.438 9.83781C13.6876 9.29446 13.6762 8.77923 13.4356 8.30775C13.3983 8.23465 13.3757 8.15492 13.3692 8.07309C13.3626 7.99127 13.3723 7.90896 13.3976 7.83086C13.4229 7.75277 13.4633 7.68042 13.5165 7.61794C13.5698 7.55547 13.6348 7.50409 13.7079 7.46675C13.8555 7.39133 14.0271 7.37764 14.1848 7.4287C14.2629 7.45398 14.3352 7.4944 14.3977 7.54764C14.4602 7.60089 14.5115 7.66591 14.5489 7.73901C14.954 8.53236 14.9934 9.4468 14.5739 10.3597C14.5239 10.4684 14.4438 10.5605 14.3431 10.625C14.2423 10.6896 14.1252 10.7238 14.0055 10.7237Z" fill="black"/>
<path d="M11.5 10.7421C11.4508 10.6764 11.4149 10.6017 11.3946 10.5222C11.3742 10.4427 11.3697 10.36 11.3813 10.2787C11.3929 10.1975 11.4204 10.1193 11.4622 10.0487C11.504 9.97804 11.5593 9.91635 11.625 9.8671L12.566 9.16126C12.6986 9.0618 12.8653 9.0191 13.0294 9.04254C13.1935 9.06598 13.3415 9.15365 13.441 9.28625C13.5404 9.41886 13.5831 9.58554 13.5597 9.74964C13.5363 9.91373 13.4486 10.0618 13.316 10.1612L12.375 10.8671C12.3093 10.9163 12.2346 10.9522 12.1551 10.9725C12.0756 10.9929 11.9929 10.9974 11.9116 10.9858C11.8304 10.9742 11.7522 10.9467 11.6816 10.9049C11.6109 10.8631 11.5492 10.8078 11.5 10.7421Z" fill="black"/>
</svg>
