<svg width="28" height="28" viewBox="0 0 28 28" fill="none" xmlns="http://www.w3.org/2000/svg">
<path d="M6.82792 19.4706C6.56637 19.4708 6.30745 19.4184 6.06659 19.3164C5.82573 19.2145 5.60785 19.0651 5.42595 18.8771C5.24404 18.6892 5.10183 18.4666 5.00778 18.2225C4.91373 17.9784 4.86976 17.7179 4.87851 17.4565L5.00197 13.6643C5.01096 13.3861 4.97087 13.1085 4.88352 12.8443C3.96553 10.0652 6.07759 7.22653 9.00285 7.30671C9.1433 7.31057 9.27964 7.35493 9.39546 7.43447C9.51128 7.514 9.60166 7.62531 9.65569 7.755L10.8024 10.5071C11.107 11.238 11.1759 12.0456 10.9995 12.8175C10.8231 13.5893 10.4102 14.2869 9.81834 14.8128C9.63502 14.9781 9.48981 15.1812 9.39274 15.4082C9.29567 15.6351 9.24907 15.8804 9.25615 16.1272L9.26754 16.7413C9.28024 17.4046 9.04777 18.0492 8.61467 18.5517C8.18158 19.0543 7.5783 19.3794 6.92041 19.4647C6.88974 19.4687 6.85885 19.4707 6.82792 19.4706ZM8.50673 8.78825C6.8753 9.00693 5.70538 10.6857 6.26756 12.3873C6.40899 12.814 6.47377 13.2624 6.45891 13.7117L6.33544 17.5039C6.33077 17.6303 6.37491 17.7536 6.4587 17.8484C6.5425 17.9431 6.65954 18.002 6.78556 18.0128C7.07687 17.9624 7.34051 17.8094 7.52872 17.5814C7.71693 17.3534 7.81725 17.0656 7.81152 16.77L7.80058 16.1559C7.78933 15.6991 7.87717 15.2453 8.05806 14.8257C8.23894 14.4062 8.50858 14.0308 8.84841 13.7253C9.21334 13.401 9.46794 12.9709 9.57672 12.4949C9.6855 12.0189 9.64303 11.5209 9.45524 11.0702L8.50673 8.78825Z" fill="black"/>
<path d="M12.3652 25.6665C11.7103 25.6662 11.0649 25.5091 10.4831 25.2084C9.90128 24.9077 9.39988 24.4721 9.02082 23.938L8.65272 23.4191C8.44571 23.1264 8.18107 22.8791 7.87505 22.6925L7.10056 22.2196C6.24244 21.6957 5.60709 20.8743 5.31561 19.9121C5.00719 18.8961 4.88281 18.5376 4.88281 17.4661C4.88281 17.2727 4.95961 17.0873 5.09631 16.9506C5.23301 16.8139 5.41841 16.7371 5.61174 16.7371C5.80506 16.7371 5.99046 16.8139 6.12716 16.9506C6.26386 17.0873 6.34066 17.2727 6.34066 17.4661C6.34066 18.3535 6.43998 18.5973 6.71105 19.4884C6.89922 20.108 7.30864 20.6367 7.86138 20.974L8.63586 21.4469C9.11057 21.7363 9.5211 22.1197 9.84223 22.5735L10.2103 23.0925C10.4542 23.4371 10.7771 23.7184 11.1521 23.9126C11.527 24.1068 11.943 24.2083 12.3652 24.2086C13.0539 24.2095 13.7319 24.0392 14.3385 23.7132C14.9451 23.3872 15.4611 22.9156 15.8404 22.3407L16.7998 20.8902C18.5178 18.2934 19.0823 14.9144 18.0444 11.7836L17.265 9.87022C17.2288 9.78156 17.2105 9.68664 17.211 9.5909C17.2116 9.49516 17.231 9.40046 17.2681 9.31221C17.3431 9.13399 17.4859 8.99287 17.665 8.91989C17.7536 8.88375 17.8485 8.86543 17.9443 8.86598C18.04 8.86652 18.1347 8.88592 18.223 8.92306C18.4012 8.99808 18.5423 9.14082 18.6153 9.31988C19.47 11.4187 19.4089 11.2666 19.4203 11.3003C20.6098 14.8634 19.9834 18.7198 18.0153 21.6952L17.0563 23.1458C16.5443 23.9216 15.8476 24.558 15.0288 24.998C14.21 25.438 13.2947 25.6677 12.3652 25.6665Z" fill="black"/>
<path d="M12.2631 17.2839C12.1295 17.2838 11.9985 17.247 11.8844 17.1775C11.7703 17.108 11.6775 17.0084 11.6162 16.8898C11.5548 16.7711 11.5272 16.6378 11.5365 16.5045C11.5457 16.3713 11.5914 16.2431 11.6686 16.134L12.2932 15.2511C12.6247 14.7782 12.7557 14.1934 12.6576 13.6242C12.5465 12.9863 12.6081 12.3302 12.8359 11.7241C13.0637 11.1179 13.4495 10.5837 13.9533 10.1769C14.7393 9.54159 15.6874 9.13915 16.6904 9.01516L20.8954 8.49307L20.7209 6.79969L13.4048 7.23431C12.7083 7.27506 12.0255 7.445 11.3911 7.73544L9.28591 8.69762C9.19859 8.73935 9.10384 8.76327 9.00718 8.768C8.91053 8.77272 8.81389 8.75815 8.72293 8.72514C8.63196 8.69212 8.54847 8.64132 8.47734 8.57571C8.40622 8.51009 8.34886 8.43096 8.30864 8.34295C8.26841 8.25493 8.24611 8.15978 8.24304 8.06306C8.23997 7.96633 8.2562 7.86997 8.29076 7.77958C8.32533 7.68919 8.37755 7.60659 8.44438 7.53659C8.5112 7.46659 8.5913 7.41061 8.67999 7.37189L10.7852 6.40926C11.5831 6.04377 12.4421 5.82996 13.3182 5.77874L21.3314 5.3022C21.5189 5.29099 21.7036 5.35264 21.8468 5.47428C21.99 5.59592 22.0807 5.76815 22.0999 5.95505L22.4188 9.05297C22.4388 9.24273 22.3836 9.43274 22.265 9.58223C22.1464 9.73172 21.974 9.82876 21.7847 9.85251L16.8699 10.4621C16.1369 10.5529 15.444 10.8471 14.8695 11.3113C14.5681 11.5546 14.3374 11.8741 14.2012 12.2367C14.065 12.5993 14.0284 12.9917 14.095 13.3732C14.2584 14.3251 14.0382 15.303 13.4827 16.093L12.8581 16.9759C12.7908 17.0711 12.7016 17.1487 12.5981 17.2023C12.4946 17.2559 12.3797 17.2839 12.2631 17.2839Z" fill="black"/>
<path d="M11.9895 20.3166L10.5316 20.2647V20.2738C10.5316 20.1918 10.5175 19.4624 9.77992 19.1348C8.90111 18.7444 8.28381 18.3362 7.89292 17.887C7.77385 17.7403 7.7164 17.553 7.7327 17.3648C7.74899 17.1765 7.83775 17.002 7.98026 16.8779C8.12277 16.7538 8.3079 16.6899 8.4966 16.6997C8.68531 16.7095 8.86284 16.7921 8.99177 16.9303C9.16034 17.1239 9.53847 17.4314 10.3722 17.8036C11.6984 18.3918 12.0123 19.6601 11.9895 20.3166Z" fill="black"/>
<path d="M15.8645 15.7955C15.8527 15.6743 15.762 15.0639 15.1356 14.9481C14.6535 14.8617 14.1932 14.6806 13.7813 14.4154C13.3695 14.1502 13.0143 13.806 12.7361 13.4028C12.6788 13.3247 12.6378 13.2359 12.6152 13.1417C12.5927 13.0475 12.5891 12.9497 12.6048 12.8541C12.6205 12.7585 12.6551 12.667 12.7065 12.5849C12.758 12.5029 12.8253 12.4319 12.9045 12.3761C12.9837 12.3203 13.0732 12.2809 13.1678 12.2601C13.2624 12.2393 13.3603 12.2376 13.4555 12.2551C13.5508 12.2726 13.6417 12.3088 13.7228 12.3618C13.8039 12.4148 13.8736 12.4834 13.9279 12.5636C14.0974 12.8127 14.3151 13.0252 14.5682 13.1886C14.8212 13.3519 15.1045 13.4629 15.4012 13.5149C16.8135 13.7759 17.2691 15.0475 17.3146 15.683L15.8618 15.7869L15.8645 15.7955Z" fill="black"/>
<path d="M11.8423 25.4459C11.7078 25.3078 11.6336 25.1219 11.6358 24.9291C11.638 24.7363 11.7165 24.5523 11.8542 24.4172C11.8783 24.3931 12.8519 23.3972 12.6792 22.1193C12.6664 22.0244 12.6724 21.9279 12.6969 21.8354C12.7214 21.7428 12.7639 21.656 12.8219 21.5798C12.8799 21.5037 12.9524 21.4397 13.0352 21.3916C13.1179 21.3434 13.2094 21.3121 13.3043 21.2993C13.3991 21.2865 13.4956 21.2925 13.5882 21.317C13.6807 21.3414 13.7676 21.3839 13.8437 21.442C13.9199 21.5 13.9838 21.5725 14.032 21.6552C14.0801 21.738 14.1115 21.8294 14.1243 21.9243C14.3976 23.9507 12.9357 25.3995 12.8733 25.4601C12.8047 25.5268 12.7236 25.5795 12.6346 25.6149C12.5457 25.6503 12.4506 25.6679 12.3549 25.6666C12.2591 25.6653 12.1646 25.6451 12.0766 25.6073C11.9887 25.5694 11.9091 25.5146 11.8423 25.4459Z" fill="black"/>
<path d="M6.75367 9.48987C6.60493 9.48991 6.45975 9.44445 6.33759 9.3596C6.21544 9.27474 6.12217 9.15455 6.0703 9.01515C5.72087 8.07484 5.24707 6.93681 5.24707 5.16097V3.06987C5.24707 2.87654 5.32387 2.69114 5.46057 2.55444C5.59727 2.41774 5.78267 2.34094 5.97599 2.34094H8.89169C9.08501 2.34094 9.27042 2.41774 9.40712 2.55444C9.54382 2.69114 9.62062 2.87654 9.62062 3.06987V4.7432C9.61935 5.17394 9.78833 5.58774 10.0908 5.89445L11.0156 6.83476C11.1382 6.9749 11.2025 7.15664 11.1953 7.34268C11.1881 7.52873 11.1101 7.70498 10.9771 7.83529C10.8441 7.96559 10.6663 8.04007 10.4801 8.04344C10.294 8.04682 10.1136 7.97883 9.97597 7.85343L9.05114 6.91266C8.48064 6.33487 8.16136 5.55518 8.16277 4.7432V3.79879H6.70492V5.16097C6.70439 6.07161 6.86686 6.97499 7.18464 7.82837L7.43703 8.50673C7.47806 8.61699 7.49179 8.73553 7.47706 8.85225C7.46232 8.96896 7.41955 9.08038 7.35241 9.17698C7.28526 9.27358 7.19574 9.35249 7.09147 9.40697C6.98721 9.46146 6.87131 9.4899 6.75367 9.48987Z" fill="black"/>
<path d="M16.9427 7.02331C16.8078 7.02333 16.6756 6.98595 16.5608 6.91533C16.4459 6.84472 16.3529 6.74363 16.2921 6.62332L16.0274 6.10168C15.7706 5.60005 15.3584 5.19505 14.8522 4.94728C14.3461 4.69952 13.7733 4.6223 13.2197 4.7272C11.3103 5.09622 11.9021 5.03426 8.90262 5.07435C8.80689 5.07561 8.71186 5.058 8.62294 5.02253C8.53402 4.98706 8.45296 4.93442 8.38439 4.86762C8.31581 4.80082 8.26107 4.72117 8.22327 4.63321C8.18548 4.54526 8.16538 4.45072 8.16413 4.35499C8.16287 4.25927 8.18048 4.16424 8.21595 4.07532C8.25142 3.9864 8.30406 3.90534 8.37086 3.83677C8.43766 3.76819 8.51731 3.71344 8.60526 3.67565C8.69322 3.63786 8.78776 3.61776 8.88348 3.6165C11.8142 3.57732 11.1564 3.6411 12.9431 3.2976C13.808 3.1335 14.7028 3.25401 15.4935 3.64108C16.2841 4.02816 16.9281 4.66097 17.329 5.44474L17.5932 5.96455C17.6496 6.07572 17.6766 6.1995 17.6715 6.32405C17.6664 6.44861 17.6295 6.56979 17.5642 6.676C17.499 6.78221 17.4076 6.86991 17.2987 6.93072C17.1899 6.99152 17.0673 7.0234 16.9427 7.02331Z" fill="black"/>
<path d="M15.8363 5.76643C15.6971 5.63242 15.6167 5.44858 15.6129 5.25533C15.6092 5.06207 15.6823 4.87524 15.8163 4.73592L17.0231 3.4767C17.1576 3.34035 17.3403 3.26241 17.5318 3.25972C17.7233 3.25702 17.9082 3.3298 18.0465 3.46232C18.1847 3.59484 18.2653 3.77644 18.2707 3.96788C18.2761 4.15932 18.206 4.3452 18.0755 4.48535L16.8669 5.74457C16.7331 5.8841 16.5494 5.96479 16.3561 5.9689C16.1629 5.973 15.9759 5.90017 15.8363 5.76643Z" fill="black"/>
<path d="M13.7426 4.5204C13.603 4.38664 13.5223 4.20292 13.5182 4.00967C13.5141 3.81642 13.587 3.62945 13.7207 3.48988L14.6068 2.56552C14.6726 2.49482 14.7519 2.43792 14.8399 2.39812C14.9279 2.35832 15.023 2.33641 15.1195 2.33367C15.2161 2.33093 15.3122 2.34741 15.4024 2.38215C15.4925 2.41689 15.5748 2.46921 15.6446 2.53605C15.7143 2.6029 15.7701 2.68294 15.8086 2.77152C15.8472 2.8601 15.8677 2.95546 15.8691 3.05206C15.8704 3.14865 15.8526 3.24455 15.8165 3.33418C15.7805 3.42381 15.727 3.50539 15.6592 3.57417L14.7731 4.49853C14.6393 4.63807 14.4556 4.71876 14.2623 4.72286C14.0691 4.72696 13.8821 4.65414 13.7426 4.5204Z" fill="black"/>
</svg>
