<svg width="24" height="24" viewBox="0 0 24 24" fill="none" xmlns="http://www.w3.org/2000/svg">
<path d="M13.2509 22.0074C13.085 22.0074 12.9259 21.9415 12.8087 21.8242C12.6914 21.7069 12.6255 21.5478 12.6255 21.3819V19.9355C12.6255 19.5208 12.7902 19.1231 13.0834 18.8299C13.3767 18.5366 13.7744 18.3719 14.1891 18.3719H18.6846C18.9334 18.3719 19.1721 18.273 19.348 18.0971C19.5239 17.9211 19.6228 17.6825 19.6228 17.4337V17.3555C19.6236 17.1951 19.686 17.0412 19.7971 16.9255C20.4574 16.2387 20.4527 14.9178 19.7713 14.2454C19.7124 14.1872 19.6655 14.1179 19.6336 14.0415C19.6016 13.965 19.5851 13.883 19.5851 13.8002C19.5851 13.7173 19.6016 13.6353 19.6336 13.5588C19.6655 13.4824 19.7124 13.4131 19.7713 13.3549C20.4597 12.6755 20.4601 11.3288 19.7713 10.649C19.7124 10.5908 19.6655 10.5215 19.6336 10.4451C19.6016 10.3686 19.5851 10.2866 19.5851 10.2038C19.5851 10.1209 19.6016 10.0389 19.6336 9.96245C19.6655 9.88602 19.7124 9.81669 19.7713 9.75851C20.4042 9.13305 20.4554 7.9478 19.9226 7.22696C19.8738 7.16084 19.8384 7.08573 19.8186 7.00594C19.7988 6.92614 19.795 6.84323 19.8072 6.76194C19.8195 6.68065 19.8477 6.60257 19.8902 6.53218C19.9326 6.46179 19.9886 6.40046 20.0548 6.35171C20.2545 6.20496 20.4202 6.01677 20.5404 5.80003C20.6607 5.58329 20.7327 5.34312 20.7515 5.09597C20.7703 4.84882 20.7354 4.60053 20.6493 4.3681C20.5632 4.13567 20.4279 3.92459 20.2526 3.74933C20.0774 3.57406 19.8663 3.43874 19.6339 3.35265C19.4014 3.26655 19.1531 3.2317 18.906 3.2505C18.6588 3.26929 18.4187 3.34128 18.2019 3.46153C17.9852 3.58178 17.797 3.74745 17.6502 3.9472C17.6015 4.0134 17.5402 4.06933 17.4698 4.1118C17.3994 4.15427 17.3213 4.18245 17.24 4.19472C17.1587 4.20699 17.0758 4.20312 16.996 4.18332C16.9162 4.16352 16.8411 4.12818 16.775 4.07933C16.0538 3.54417 14.8677 3.59538 14.2434 4.22866C14.1853 4.28764 14.1159 4.33447 14.0395 4.36643C13.9631 4.3984 13.881 4.41486 13.7982 4.41486C13.7153 4.41486 13.6333 4.3984 13.5569 4.36643C13.4805 4.33447 13.4111 4.28764 13.3529 4.22866C12.6735 3.54026 11.3268 3.53987 10.6471 4.22866C10.5889 4.28764 10.5195 4.33447 10.4431 4.36643C10.3667 4.3984 10.2847 4.41486 10.2018 4.41486C10.119 4.41486 10.0369 4.3984 9.9605 4.36643C9.88406 4.33447 9.81474 4.28764 9.75655 4.22866C9.13109 3.59577 7.94546 3.54456 7.225 4.07738C7.159 4.12633 7.08399 4.1618 7.00427 4.18175C6.92456 4.2017 6.84169 4.20575 6.7604 4.19366C6.67912 4.18157 6.60101 4.15358 6.53055 4.1113C6.46009 4.06901 6.39865 4.01325 6.34975 3.9472C6.2036 3.74608 6.01559 3.57902 5.79866 3.45755C5.58173 3.33608 5.34105 3.26308 5.09319 3.24359C4.84534 3.22409 4.5962 3.25855 4.36295 3.34461C4.12969 3.43067 3.91787 3.56627 3.74207 3.74207C3.56627 3.91787 3.43067 4.1297 3.34461 4.36295C3.25855 4.5962 3.22409 4.84534 3.24359 5.09319C3.26308 5.34105 3.33608 5.58173 3.45755 5.79866C3.57902 6.01559 3.74608 6.2036 3.9472 6.34975C4.0134 6.39851 4.06933 6.45984 4.1118 6.53023C4.15427 6.60062 4.18245 6.67869 4.19472 6.75999C4.20699 6.84128 4.20312 6.92419 4.18332 7.00398C4.16352 7.08377 4.12818 7.15888 4.07933 7.22501C3.54417 7.94624 3.59538 9.13227 4.22866 9.75655C4.28764 9.81474 4.33447 9.88406 4.36643 9.9605C4.3984 10.0369 4.41486 10.119 4.41486 10.2018C4.41486 10.2847 4.3984 10.3667 4.36643 10.4431C4.33447 10.5195 4.28764 10.5889 4.22866 10.6471C3.54026 11.3265 3.53987 12.6732 4.22866 13.3529C4.28764 13.4111 4.33447 13.4805 4.36643 13.5569C4.3984 13.6333 4.41486 13.7154 4.41486 13.7982C4.41486 13.881 4.3984 13.9631 4.36643 14.0395C4.33447 14.1159 4.28764 14.1853 4.22866 14.2434C3.90068 14.5671 3.71266 15.0605 3.71266 15.5964C3.71266 16.5076 4.28534 17.2773 4.96358 17.2773H5.97995C6.14583 17.2773 6.30492 17.3432 6.42221 17.4605C6.53951 17.5778 6.60541 17.7369 6.60541 17.9028V19.5055C6.60541 19.6507 6.66307 19.7899 6.7657 19.8925C6.86834 19.9951 7.00754 20.0528 7.15269 20.0528H7.46542V16.9646C7.46542 16.8194 7.40776 16.6802 7.30512 16.5776C7.20249 16.475 7.06329 16.4173 6.91814 16.4173H6.83331C6.74757 16.4175 6.6627 16.4001 6.58398 16.3661C6.50527 16.3321 6.43438 16.2823 6.37572 16.2197C6.31707 16.1572 6.2719 16.0832 6.24302 16.0025C6.21414 15.9218 6.20217 15.836 6.20785 15.7504C6.24421 15.2 6.08237 14.6238 5.69693 14.2434C5.63795 14.1853 5.59112 14.1159 5.55916 14.0395C5.52719 13.9631 5.51073 13.881 5.51073 13.7982C5.51073 13.7154 5.52719 13.6333 5.55916 13.5569C5.59112 13.4805 5.63795 13.4111 5.69693 13.3529C6.38532 12.6735 6.38572 11.3268 5.69693 10.6471C5.63795 10.5889 5.59112 10.5195 5.55916 10.4431C5.52719 10.3667 5.51073 10.2847 5.51073 10.2018C5.51073 10.119 5.52719 10.0369 5.55916 9.9605C5.59112 9.88406 5.63795 9.81474 5.69693 9.75655C6.32981 9.13109 6.38102 7.94585 5.84821 7.22501C5.79934 7.1589 5.76398 7.08382 5.74415 7.00404C5.72432 6.92426 5.72041 6.84136 5.73264 6.76007C5.74488 6.67878 5.77302 6.6007 5.81545 6.53029C5.85789 6.45989 5.91378 6.39854 5.97995 6.34975C6.12056 6.24628 6.24471 6.12213 6.34819 5.98151C6.39697 5.91535 6.45832 5.85945 6.52873 5.81702C6.59914 5.77458 6.67722 5.74644 6.75851 5.73421C6.8398 5.72197 6.9227 5.72588 7.00248 5.74571C7.08225 5.76554 7.15734 5.8009 7.22344 5.84977C7.94467 6.38298 9.1307 6.33099 9.75499 5.69849C9.81318 5.63951 9.8825 5.59268 9.95893 5.56072C10.0354 5.52876 10.1174 5.5123 10.2002 5.5123C10.2831 5.5123 10.3651 5.52876 10.4415 5.56072C10.518 5.59268 10.5873 5.63951 10.6455 5.69849C11.3249 6.38689 12.6716 6.38728 13.3514 5.69849C13.4096 5.63951 13.4789 5.59268 13.5553 5.56072C13.6318 5.52876 13.7138 5.5123 13.7966 5.5123C13.8795 5.5123 13.9615 5.52876 14.0379 5.56072C14.1144 5.59268 14.1837 5.63951 14.2419 5.69849C14.8673 6.33138 16.0526 6.38259 16.7734 5.84977C16.8395 5.80058 16.9146 5.76491 16.9945 5.74482C17.0744 5.72474 17.1574 5.72062 17.2389 5.73272C17.3204 5.74481 17.3986 5.77288 17.4692 5.81531C17.5398 5.85773 17.6013 5.91368 17.6502 5.97995C17.7537 6.12056 17.8779 6.24471 18.0185 6.34819C18.0847 6.39697 18.1406 6.45832 18.183 6.52873C18.2254 6.59914 18.2536 6.67722 18.2658 6.75851C18.278 6.8398 18.2741 6.9227 18.2543 7.00248C18.2345 7.08226 18.1991 7.15734 18.1502 7.22344C17.617 7.94467 17.669 9.1307 18.3015 9.75499C18.3605 9.81318 18.4073 9.8825 18.4393 9.95893C18.4712 10.0354 18.4877 10.1174 18.4877 10.2002C18.4877 10.2831 18.4712 10.3651 18.4393 10.4415C18.4073 10.518 18.3605 10.5873 18.3015 10.6455C17.6131 11.3249 17.6127 12.6716 18.3015 13.3514C18.3605 13.4096 18.4073 13.4789 18.4393 13.5553C18.4712 13.6318 18.4877 13.7138 18.4877 13.7966C18.4877 13.8795 18.4712 13.9615 18.4393 14.0379C18.4073 14.1144 18.3605 14.1837 18.3015 14.2419C17.7933 14.7438 17.6631 15.6038 17.8993 16.2907C17.9319 16.3849 17.9416 16.4857 17.9274 16.5844C17.9132 16.6832 17.8756 16.7771 17.8177 16.8584C17.7598 16.9396 17.6833 17.0059 17.5946 17.0516C17.5059 17.0972 17.4076 17.121 17.3078 17.121H13.72C13.0982 17.1217 12.502 17.369 12.0623 17.8087C11.6226 18.2484 11.3753 18.8446 11.3745 19.4664V21.3819C11.3745 21.5478 11.3086 21.7069 11.1913 21.8242C11.074 21.9415 10.915 22.0074 10.7491 22.0074C10.5832 22.0074 10.4241 21.9415 10.3068 21.8242C10.1895 21.7069 10.1236 21.5478 10.1236 21.3819V19.4664C10.1247 18.5129 10.5039 17.5988 11.1781 16.9245C11.8524 16.2503 12.7665 15.8711 13.72 15.87H16.5451C16.4892 15.1543 16.6538 14.4088 17.058 13.7982C16.3606 12.7427 16.3595 11.2573 17.058 10.2018C16.4986 9.35626 16.3868 8.23239 16.7265 7.27348C15.7653 7.61396 14.6418 7.50021 13.7982 6.94198C12.7427 7.63937 11.2573 7.64054 10.2018 6.94198C9.35821 7.50021 8.23434 7.61396 7.27348 7.27348C7.61318 8.23278 7.50138 9.35665 6.94198 10.2018C7.63937 11.2573 7.64054 12.7427 6.94198 13.7982C7.22474 14.2325 7.39828 14.7287 7.44782 15.2446C7.8152 15.3583 8.13654 15.5866 8.3648 15.8961C8.59306 16.2056 8.71625 16.58 8.71634 16.9646V20.6783C8.71634 20.8441 8.65044 21.0032 8.53314 21.1205C8.41585 21.2378 8.25676 21.3037 8.09088 21.3037H7.15269C6.67596 21.3031 6.21895 21.1134 5.88185 20.7764C5.54476 20.4393 5.35511 19.9822 5.35449 19.5055V18.5282H4.96358C3.58405 18.5282 2.46174 17.2132 2.46174 15.5964C2.45693 14.9588 2.63889 14.3336 2.98517 13.7982C2.28778 12.7427 2.28661 11.2573 2.98517 10.2018C2.36518 9.26361 2.29599 7.98885 2.7772 6.97443C2.26155 6.40981 1.98345 5.66811 2.00076 4.90366C2.01808 4.1392 2.32948 3.41086 2.87017 2.87017C3.41086 2.32948 4.1392 2.01808 4.90366 2.00076C5.66811 1.98345 6.40981 2.26155 6.97443 2.7772C7.9908 2.29599 9.26557 2.36557 10.2018 2.98517C11.2573 2.28778 12.7427 2.28661 13.7982 2.98517C14.7364 2.36518 16.0112 2.29599 17.0256 2.7772C17.5902 2.26155 18.3319 1.98345 19.0963 2.00076C19.8608 2.01808 20.5891 2.32948 21.1298 2.87017C21.6705 3.41086 21.9819 4.1392 21.9992 4.90366C22.0166 5.66811 21.7385 6.40981 21.2228 6.97443C21.704 7.9908 21.6344 9.26557 21.0148 10.2018C21.7122 11.2573 21.7134 12.7427 21.0148 13.7982C21.7626 14.9283 21.7052 16.544 20.8675 17.5979C20.8254 18.1482 20.5773 18.6625 20.1726 19.0379C19.768 19.4132 19.2366 19.6221 18.6846 19.6228H14.1891C14.1062 19.6228 14.0266 19.6557 13.968 19.7144C13.9093 19.773 13.8764 19.8526 13.8764 19.9355V21.3819C13.8764 21.5478 13.8105 21.7069 13.6932 21.8242C13.5759 21.9415 13.4168 22.0074 13.2509 22.0074Z" fill="#081B25"/>
<path d="M6.57894 13.1157C6.50114 13.0882 6.42954 13.0456 6.36826 12.9904C6.30698 12.9351 6.25724 12.8683 6.2219 12.7938C6.18656 12.7192 6.16632 12.6384 6.16235 12.556C6.15837 12.4736 6.17074 12.3912 6.19874 12.3136C6.22674 12.236 6.26982 12.1647 6.3255 12.1038C6.38118 12.0429 6.44835 11.9936 6.52315 11.9588C6.59795 11.924 6.6789 11.9043 6.76133 11.9009C6.84377 11.8975 6.92606 11.9105 7.00347 11.939C7.8283 12.2365 9.01511 12.516 9.98418 12.1564C10.1273 12.1032 10.3665 11.9273 10.5795 11.6529C11.25 10.7897 10.9044 10.1717 10.6386 9.88047C9.75628 8.9114 10.0823 7.57409 10.7273 6.43575C10.8091 6.29143 10.9449 6.18552 11.1048 6.14132C11.2647 6.09711 11.4356 6.11823 11.5799 6.20003C11.7242 6.28183 11.8301 6.41761 11.8743 6.5775C11.9185 6.73739 11.8974 6.90829 11.8156 7.05261C11.4841 7.63898 11.1088 8.53808 11.5635 9.03806C12.4841 10.0482 12.3844 11.3695 11.5678 12.4202C11.2328 12.8502 10.8141 13.1829 10.4193 13.3291C9.20783 13.7787 7.79546 13.5547 6.57894 13.1157Z" fill="#081B25"/>
<path d="M8.79026 10.9C7.81298 10.7698 6.96704 10.4152 6.27357 9.8445C6.14624 9.73891 6.06592 9.58719 6.0502 9.42252C6.03447 9.25786 6.08461 9.09367 6.18965 8.96589C6.29469 8.8381 6.44607 8.75713 6.61067 8.74069C6.77526 8.72425 6.93966 8.77369 7.0679 8.87817C7.57843 9.29762 8.21366 9.56031 8.95523 9.65999C9.037 9.6704 9.11592 9.69687 9.18743 9.73788C9.25894 9.77889 9.32164 9.83363 9.37192 9.89896C9.4222 9.96429 9.45907 10.0389 9.48041 10.1185C9.50175 10.1982 9.50714 10.2812 9.49627 10.3629C9.4854 10.4447 9.45848 10.5234 9.41706 10.5947C9.37565 10.666 9.32055 10.7284 9.25494 10.7783C9.18932 10.8282 9.11449 10.8646 9.03475 10.8855C8.955 10.9064 8.87191 10.9113 8.79026 10.9Z" fill="#081B25"/>
<path d="M12.3984 17.4313C12.2853 17.4314 12.1744 17.4009 12.0774 17.3431C11.9803 17.2852 11.9008 17.2021 11.8472 17.1026C11.3609 16.1988 11.2198 15.4275 11.4285 14.8103C11.5774 14.3697 11.9023 14.0253 12.3667 13.8146C14.0718 13.0453 14.2673 12.9108 14.2673 12.1173C14.2673 11.3448 14.5128 10.7702 14.9975 10.4094C15.5882 9.96961 16.4595 9.91722 17.5873 10.253C17.7464 10.3005 17.8801 10.4092 17.959 10.5553C18.038 10.7014 18.0556 10.8728 18.0081 11.0319C17.9607 11.191 17.8519 11.3247 17.7058 11.4036C17.5598 11.4826 17.3883 11.5002 17.2292 11.4527C16.5416 11.2471 15.9865 11.2319 15.7438 11.4136C15.5964 11.5247 15.5182 11.7615 15.5182 12.1173C15.5182 13.7951 14.487 14.2282 12.9382 14.9291C12.7971 14.9928 12.6646 15.0558 12.613 15.211C12.525 15.4709 12.6501 15.9564 12.948 16.5092C12.9993 16.6044 13.025 16.7113 13.0227 16.8194C13.0203 16.9275 12.99 17.0332 12.9346 17.1261C12.8793 17.219 12.8008 17.296 12.7068 17.3495C12.6128 17.403 12.5065 17.4312 12.3984 17.4313Z" fill="#081B25"/>
<path d="M10.7279 19.7276C9.62356 19.6517 8.63259 19.3691 7.78275 18.8875C7.70927 18.8481 7.64439 18.7945 7.59194 18.7297C7.53949 18.6649 7.50053 18.5902 7.47733 18.5102C7.45414 18.4301 7.44719 18.3462 7.45688 18.2634C7.46658 18.1806 7.49273 18.1006 7.5338 18.028C7.57487 17.9555 7.63002 17.8919 7.69602 17.841C7.76203 17.79 7.83754 17.7528 7.91814 17.7315C7.99873 17.7102 8.08277 17.7052 8.16532 17.7168C8.24787 17.7284 8.32726 17.7564 8.39883 17.7992C9.08488 18.1878 9.89759 18.4164 10.8139 18.4798C10.9774 18.4937 11.1289 18.5714 11.2357 18.696C11.3424 18.8206 11.3959 18.9822 11.3847 19.146C11.3734 19.3097 11.2982 19.4624 11.1753 19.5712C11.0525 19.68 10.8918 19.7362 10.7279 19.7276Z" fill="#081B25"/>
<path d="M7.86706 16.9622C7.70149 16.9511 7.54711 16.8747 7.43788 16.7498C7.32864 16.6249 7.27351 16.4617 7.2846 16.2961C7.2957 16.1306 7.37211 15.9762 7.49703 15.8669C7.62195 15.7577 7.78515 15.7026 7.95072 15.7137C8.43076 15.7453 8.90455 15.4138 9.31891 14.754C9.3627 14.6845 9.41975 14.6243 9.48681 14.5768C9.55386 14.5293 9.62961 14.4956 9.70972 14.4774C9.78984 14.4592 9.87275 14.457 9.95372 14.4708C10.0347 14.4847 10.1121 14.5143 10.1817 14.5581C10.2512 14.6019 10.3114 14.659 10.3588 14.726C10.4063 14.7931 10.4401 14.8688 10.4583 14.9489C10.4764 15.0291 10.4787 15.112 10.4648 15.1929C10.451 15.2739 10.4213 15.3514 10.3775 15.4209C9.81068 16.3262 8.95067 17.035 7.86706 16.9622Z" fill="#081B25"/>
<path d="M12.8485 14.6946C11.5522 13.9839 10.8642 13.0097 10.5151 12.3178C10.4782 12.2445 10.456 12.1645 10.45 12.0826C10.4439 12.0007 10.454 11.9184 10.4797 11.8404C10.5055 11.7624 10.5463 11.6902 10.6 11.628C10.6536 11.5658 10.7189 11.5147 10.7923 11.4777C10.8657 11.4408 10.9456 11.4186 11.0275 11.4126C11.1094 11.4065 11.1917 11.4166 11.2697 11.4423C11.3477 11.4681 11.4199 11.5089 11.4821 11.5626C11.5444 11.6162 11.5954 11.6815 11.6324 11.7549C11.9013 12.2885 12.4349 13.0414 13.4497 13.5977C13.5935 13.6783 13.6997 13.8124 13.7451 13.9709C13.7906 14.1293 13.7716 14.2993 13.6924 14.4439C13.6131 14.5885 13.48 14.6959 13.322 14.7428C13.164 14.7898 12.9938 14.7724 12.8485 14.6946Z" fill="#081B25"/>
<path d="M10.4577 9.64241C10.4194 9.56972 10.3959 9.49021 10.3884 9.40842C10.3809 9.32662 10.3895 9.24415 10.4139 9.1657C10.4382 9.08726 10.4778 9.01438 10.5303 8.95123C10.5828 8.88808 10.6473 8.83589 10.72 8.79765C11.7981 8.23044 12.9396 8.14913 14.0212 8.5631C14.098 8.59241 14.1683 8.63657 14.228 8.69304C14.2878 8.74951 14.3358 8.81719 14.3694 8.89222C14.403 8.96725 14.4214 9.04816 14.4237 9.13033C14.426 9.2125 14.4121 9.29432 14.3828 9.37112C14.3535 9.44792 14.3094 9.51819 14.2529 9.57792C14.1964 9.63766 14.1287 9.68568 14.0537 9.71926C13.9787 9.75284 13.8978 9.77131 13.8156 9.77362C13.7334 9.77592 13.6516 9.76202 13.5748 9.73271C12.8286 9.44774 12.0639 9.50637 11.3024 9.90667C11.2296 9.94484 11.15 9.96829 11.0681 9.97566C10.9863 9.98304 10.9037 9.97421 10.8253 9.94966C10.7468 9.92512 10.674 9.88535 10.6109 9.83263C10.5478 9.77991 10.4958 9.71527 10.4577 9.64241Z" fill="#081B25"/>
</svg>
