<svg width="28" height="28" viewBox="0 0 28 28" fill="none" xmlns="http://www.w3.org/2000/svg">
<path d="M7.43766 20.8816C3.99782 20.8816 2.3335 17.4677 2.3335 14C2.3335 10.5324 4.00055 7.11853 7.43766 7.11853C8.08638 7.1183 8.71975 7.31586 9.25331 7.68485C9.78687 8.05385 10.1952 8.57674 10.424 9.18379C10.6527 9.79085 10.691 10.4532 10.5336 11.0826C10.3762 11.7119 10.0307 12.2783 9.54313 12.7062C9.7177 13.1152 9.8077 13.5553 9.8077 14C9.8077 14.4447 9.7177 14.8849 9.54313 15.2939C10.0307 15.7218 10.3762 16.2882 10.5336 16.9175C10.691 17.5469 10.6527 18.2092 10.424 18.8163C10.1952 19.4233 9.78687 19.9462 9.25331 20.3152C8.71975 20.6842 8.08638 20.8818 7.43766 20.8816ZM7.43766 8.57686C4.86553 8.57686 3.79183 11.4279 3.79183 14C3.79183 16.5722 4.86553 19.4232 7.43766 19.4232C7.82494 19.4234 8.2011 19.2937 8.50602 19.055C8.81095 18.8162 9.02704 18.4821 9.11977 18.1061C9.2125 17.7301 9.17652 17.3338 9.01757 16.9807C8.85862 16.6275 8.58588 16.3378 8.24294 16.1579C8.14998 16.1091 8.06867 16.0407 8.00457 15.9575C7.94048 15.8743 7.89511 15.7783 7.87157 15.6759C7.84803 15.5736 7.84687 15.4674 7.86818 15.3645C7.88948 15.2617 7.93275 15.1647 7.99502 15.0801C8.22527 14.7671 8.34945 14.3886 8.34945 14C8.34945 13.6114 8.22527 13.233 7.99502 12.92C7.93275 12.8354 7.88948 12.7384 7.86818 12.6356C7.84687 12.5327 7.84803 12.4265 7.87157 12.3242C7.89511 12.2218 7.94048 12.1258 8.00457 12.0426C8.06867 11.9594 8.14998 11.891 8.24294 11.8422C8.58588 11.6622 8.85862 11.3726 9.01757 11.0194C9.17652 10.6662 9.2125 10.27 9.11977 9.89398C9.02704 9.51796 8.81095 9.18388 8.50602 8.94512C8.2011 8.70636 7.82494 8.5767 7.43766 8.57686Z" fill="black"/>
<path d="M5.84255 12.2683C5.73512 12.2684 5.62898 12.2448 5.53172 12.1992C5.43446 12.1536 5.34849 12.087 5.27996 12.0043C5.21142 11.9215 5.16201 11.8247 5.13526 11.7206C5.10852 11.6166 5.10509 11.5079 5.12524 11.4024C5.33624 10.2954 6.18253 9.78088 6.6492 9.651L7.0393 11.0565L7.05479 11.0519C6.9878 11.0742 6.64464 11.2091 6.55805 11.6749C6.52645 11.8416 6.43771 11.9921 6.3071 12.1004C6.1765 12.2087 6.01222 12.268 5.84255 12.2683Z" fill="black"/>
<path d="M15.2306 25.6667C15.0372 25.6667 14.8518 25.5899 14.715 25.4531C14.5783 25.3164 14.5015 25.1309 14.5015 24.9375V3.06254C14.5015 2.86915 14.5783 2.68369 14.715 2.54694C14.8518 2.4102 15.0372 2.33337 15.2306 2.33337C15.424 2.33337 15.6095 2.4102 15.7462 2.54694C15.883 2.68369 15.9598 2.86915 15.9598 3.06254V24.9375C15.9598 25.1309 15.883 25.3164 15.7462 25.4531C15.6095 25.5899 15.424 25.6667 15.2306 25.6667Z" fill="black"/>
<path d="M12.7697 25.6667C12.5763 25.6667 12.3908 25.5899 12.2541 25.4531C12.1174 25.3164 12.0405 25.1309 12.0405 24.9375V3.06254C12.0405 2.86915 12.1174 2.68369 12.2541 2.54694C12.3908 2.4102 12.5763 2.33337 12.7697 2.33337C12.9631 2.33337 13.1485 2.4102 13.2853 2.54694C13.422 2.68369 13.4989 2.86915 13.4989 3.06254V24.9375C13.4989 25.1309 13.422 25.3164 13.2853 25.4531C13.1485 25.5899 12.9631 25.6667 12.7697 25.6667Z" fill="black"/>
<path d="M12.7696 18.7852C12.5762 18.7852 12.3908 18.7083 12.254 18.5716C12.1173 18.4348 12.0405 18.2494 12.0405 18.056C12.0397 17.4035 11.7802 16.778 11.3189 16.3166C10.8575 15.8553 10.232 15.5958 9.57953 15.5951H8.92692C8.73353 15.5951 8.54807 15.5182 8.41132 15.3815C8.27458 15.2447 8.19775 15.0593 8.19775 14.8659C8.19775 14.6725 8.27458 14.487 8.41132 14.3503C8.54807 14.2135 8.73353 14.1367 8.92692 14.1367H9.57953C10.6186 14.1379 11.6148 14.5512 12.3495 15.286C13.0843 16.0207 13.4976 17.0169 13.4988 18.056C13.4988 18.2494 13.422 18.4348 13.2852 18.5716C13.1485 18.7083 12.963 18.7852 12.7696 18.7852Z" fill="black"/>
<path d="M10.3089 12.9519H8.98405C8.79066 12.9519 8.6052 12.875 8.46845 12.7383C8.33171 12.6016 8.25488 12.4161 8.25488 12.2227C8.25488 12.0293 8.33171 11.8438 8.46845 11.7071C8.6052 11.5704 8.79066 11.4935 8.98405 11.4935H10.3089C10.7681 11.4935 11.2086 11.3111 11.5334 10.9863C11.8582 10.6615 12.0406 10.2211 12.0406 9.76176C12.0406 9.56837 12.1174 9.38291 12.2542 9.24616C12.3909 9.10942 12.5764 9.03259 12.7698 9.03259C12.9632 9.03259 13.1486 9.10942 13.2854 9.24616C13.4221 9.38291 13.499 9.56837 13.499 9.76176C13.498 10.6075 13.1616 11.4184 12.5635 12.0164C11.9655 12.6145 11.1546 12.9509 10.3089 12.9519Z" fill="black"/>
<path d="M20.5628 20.8816C19.9141 20.8818 19.2807 20.6842 18.7472 20.3152C18.2136 19.9462 17.8052 19.4233 17.5765 18.8163C17.3477 18.2092 17.3095 17.5469 17.4669 16.9175C17.6243 16.2882 17.9698 15.7218 18.4573 15.2939C18.2828 14.8849 18.1928 14.4447 18.1928 14C18.1928 13.5553 18.2828 13.1152 18.4573 12.7062C17.9698 12.2783 17.6243 11.7119 17.4669 11.0826C17.3095 10.4532 17.3477 9.79085 17.5765 9.18379C17.8052 8.57674 18.2136 8.05385 18.7472 7.68485C19.2807 7.31586 19.9141 7.1183 20.5628 7.11853C24.0026 7.11853 25.667 10.5324 25.667 14C25.667 17.4677 23.9999 20.8816 20.5628 20.8816ZM20.5628 8.57686C20.1755 8.5767 19.7994 8.70636 19.4944 8.94512C19.1895 9.18388 18.9734 9.51796 18.8807 9.89398C18.788 10.27 18.8239 10.6662 18.9829 11.0194C19.1418 11.3726 19.4146 11.6622 19.7575 11.8422C19.8505 11.891 19.9318 11.9594 19.9959 12.0426C20.06 12.1258 20.1054 12.2218 20.1289 12.3242C20.1524 12.4265 20.1536 12.5327 20.1323 12.6356C20.111 12.7384 20.0677 12.8354 20.0054 12.92C19.7752 13.233 19.651 13.6114 19.651 14C19.651 14.3886 19.7752 14.7671 20.0054 15.0801C20.0677 15.1647 20.111 15.2617 20.1323 15.3645C20.1536 15.4674 20.1524 15.5736 20.1289 15.6759C20.1054 15.7783 20.06 15.8743 19.9959 15.9575C19.9318 16.0407 19.8505 16.1091 19.7575 16.1579C19.4146 16.3378 19.1418 16.6275 18.9829 16.9807C18.8239 17.3338 18.788 17.7301 18.8807 18.1061C18.9734 18.4821 19.1895 18.8162 19.4944 19.055C19.7994 19.2937 20.1755 19.4234 20.5628 19.4232C23.1349 19.4232 24.2086 16.5722 24.2086 14C24.2086 11.4279 23.1349 8.57686 20.5628 8.57686Z" fill="black"/>
<path d="M22.1576 12.2683C21.988 12.2681 21.8238 12.2089 21.6933 12.1008C21.5627 11.9927 21.4738 11.8424 21.4421 11.6759C21.3536 11.2101 21.0123 11.0752 20.9453 11.0529L20.9608 11.0574L21.3509 9.65198C21.8176 9.78186 22.6639 10.2964 22.8749 11.4033C22.8949 11.5088 22.8913 11.6174 22.8645 11.7213C22.8377 11.8253 22.7883 11.922 22.7197 12.0046C22.6512 12.0872 22.5653 12.1537 22.4681 12.1993C22.3709 12.2449 22.2649 12.2685 22.1576 12.2683Z" fill="black"/>
<path d="M15.2306 18.7852C15.0372 18.7852 14.8518 18.7083 14.715 18.5716C14.5783 18.4348 14.5015 18.2494 14.5015 18.056C14.5027 17.0169 14.916 16.0207 15.6507 15.286C16.3855 14.5512 17.3817 14.1379 18.4207 14.1367H19.0733C19.2667 14.1367 19.4522 14.2135 19.5889 14.3503C19.7257 14.487 19.8025 14.6725 19.8025 14.8659C19.8025 15.0593 19.7257 15.2447 19.5889 15.3815C19.4522 15.5182 19.2667 15.5951 19.0733 15.5951H18.4207C17.7683 15.5958 17.1427 15.8553 16.6814 16.3166C16.22 16.778 15.9605 17.4035 15.9598 18.056C15.9598 18.2494 15.883 18.4348 15.7462 18.5716C15.6095 18.7083 15.424 18.7852 15.2306 18.7852Z" fill="black"/>
<path d="M19.0164 12.9519H17.6916C16.8458 12.9509 16.0349 12.6145 15.4369 12.0164C14.8388 11.4184 14.5024 10.6075 14.5015 9.76176C14.5015 9.56837 14.5783 9.38291 14.715 9.24616C14.8518 9.10942 15.0372 9.03259 15.2306 9.03259C15.424 9.03259 15.6095 9.10942 15.7462 9.24616C15.883 9.38291 15.9598 9.56837 15.9598 9.76176C15.9598 10.2211 16.1423 10.6615 16.467 10.9863C16.7918 11.3111 17.2323 11.4935 17.6916 11.4935H19.0164C19.2098 11.4935 19.3952 11.5704 19.532 11.7071C19.6687 11.8438 19.7455 12.0293 19.7455 12.2227C19.7455 12.4161 19.6687 12.6016 19.532 12.7383C19.3952 12.875 19.2098 12.9519 19.0164 12.9519Z" fill="black"/>
</svg>
