<svg width="24" height="24" viewBox="0 0 24 24" fill="none" xmlns="http://www.w3.org/2000/svg">
<path d="M4.5457 19.3203C3.87076 19.3196 3.22367 19.0511 2.74642 18.5739C2.26916 18.0966 2.00072 17.4495 2 16.7746V11.0625C2 7.87461 4.59336 5.28125 7.78125 5.28125H12.8594C13.3565 5.28177 13.8331 5.47948 14.1846 5.831C14.5361 6.18251 14.7339 6.65913 14.7344 7.15625V13.6016C14.7344 14.0446 14.6468 14.4832 14.4766 14.8922C14.3064 15.3012 14.057 15.6725 13.7427 15.9848C13.4284 16.297 13.0555 16.544 12.6454 16.7115C12.2353 16.8791 11.7961 16.9638 11.3531 16.9609H9.31602C9.02412 16.9607 8.73868 17.0468 8.4957 17.2086L5.95391 18.8957C5.53668 19.1731 5.04672 19.3208 4.5457 19.3203ZM7.78125 6.53125C6.5799 6.53259 5.42814 7.01042 4.57866 7.85991C3.72917 8.70939 3.25134 9.86115 3.25 11.0625V16.7746C3.24999 17.0089 3.31351 17.2388 3.43379 17.4399C3.55407 17.6409 3.72662 17.8056 3.93306 17.9164C4.13951 18.0272 4.37213 18.0799 4.60616 18.069C4.8402 18.058 5.06689 17.9838 5.26211 17.8543L7.80391 16.1672C8.25189 15.8692 8.778 15.7105 9.31602 15.7109H11.375C11.9344 15.7109 12.471 15.4887 12.8666 15.0931C13.2621 14.6975 13.4844 14.161 13.4844 13.6016V7.15625C13.4844 6.99049 13.4185 6.83152 13.3013 6.71431C13.1841 6.5971 13.0251 6.53125 12.8594 6.53125H7.78125Z" fill="#081B25"/>
<path d="M5.13422 10.1797C5.02443 10.1798 4.91654 10.1511 4.8214 10.0963C4.72626 10.0415 4.64723 9.96262 4.59227 9.86758C4.5373 9.77254 4.50834 9.6647 4.5083 9.55491C4.50826 9.44512 4.53714 9.33726 4.59204 9.24218C4.98515 8.56063 5.58472 8.02167 6.30414 7.70312C6.3793 7.66966 6.46032 7.65136 6.54256 7.64928C6.6248 7.6472 6.70664 7.66137 6.78339 7.69099C6.86014 7.72061 6.93029 7.76509 6.98981 7.82188C7.04933 7.87867 7.09706 7.94665 7.13025 8.02193C7.16344 8.0972 7.18144 8.17829 7.18322 8.26054C7.18501 8.34279 7.17053 8.42458 7.14064 8.50122C7.11074 8.57786 7.066 8.64785 7.009 8.70716C6.95199 8.76647 6.88384 8.81395 6.80844 8.84687C6.33205 9.05783 5.93526 9.41508 5.67563 9.86679C5.62081 9.9619 5.54191 10.0409 5.44687 10.0958C5.35183 10.1507 5.244 10.1797 5.13422 10.1797Z" fill="#081B25"/>
<path d="M16.2969 14.5781H14.1094C13.9436 14.5781 13.7846 14.5123 13.6674 14.3951C13.5502 14.2779 13.4844 14.1189 13.4844 13.9531V7.9375C13.4849 7.44038 13.6826 6.96376 14.0341 6.61225C14.3856 6.26073 14.8623 6.06302 15.3594 6.0625H19.7344C20.335 6.06322 20.9109 6.30216 21.3356 6.72689C21.7603 7.15162 21.9993 7.72747 22 8.32812V8.875C22 12.0195 19.4414 14.5781 16.2969 14.5781ZM14.7344 13.3281H16.2969C17.4775 13.3268 18.6094 12.8572 19.4442 12.0224C20.2791 11.1875 20.7487 10.0556 20.75 8.875V8.32812C20.75 8.05876 20.643 7.80044 20.4525 7.60997C20.2621 7.4195 20.0037 7.3125 19.7344 7.3125H15.3594C15.1936 7.3125 15.0346 7.37835 14.9174 7.49556C14.8002 7.61277 14.7344 7.77174 14.7344 7.9375V13.3281Z" fill="#081B25"/>
<path d="M11.4531 22C11.2874 22 11.1284 21.9342 11.0112 21.8169C10.894 21.6997 10.8281 21.5408 10.8281 21.375V16.9609H9.96875V21.375C9.96875 21.5408 9.9029 21.6997 9.78569 21.8169C9.66848 21.9342 9.50951 22 9.34375 22C9.17799 22 9.01902 21.9342 8.90181 21.8169C8.7846 21.6997 8.71875 21.5408 8.71875 21.375V16.3359C8.71875 16.1702 8.7846 16.0112 8.90181 15.894C9.01902 15.7768 9.17799 15.7109 9.34375 15.7109H11.4531C11.6189 15.7109 11.7779 15.7768 11.8951 15.894C12.0123 16.0112 12.0781 16.1702 12.0781 16.3359V21.375C12.0781 21.5408 12.0123 21.6997 11.8951 21.8169C11.7779 21.9342 11.6189 22 11.4531 22Z" fill="#081B25"/>
<path d="M12.3906 6.53125H10.2812C10.1155 6.53125 9.95652 6.4654 9.83931 6.34819C9.7221 6.23098 9.65625 6.07201 9.65625 5.90625V2.625C9.65625 2.45924 9.7221 2.30027 9.83931 2.18306C9.95652 2.06585 10.1155 2 10.2812 2C10.447 2 10.606 2.06585 10.7232 2.18306C10.8404 2.30027 10.9062 2.45924 10.9062 2.625V5.28125H11.7656V2.625C11.7656 2.45924 11.8315 2.30027 11.9487 2.18306C12.0659 2.06585 12.2249 2 12.3906 2C12.5564 2 12.7154 2.06585 12.8326 2.18306C12.9498 2.30027 13.0156 2.45924 13.0156 2.625V5.90625C13.0156 6.07201 12.9498 6.23098 12.8326 6.34819C12.7154 6.4654 12.5564 6.53125 12.3906 6.53125Z" fill="#081B25"/>
<path d="M13.8359 19.3828H11.4531C11.2874 19.3828 11.1284 19.317 11.0112 19.1998C10.894 19.0825 10.8281 18.9236 10.8281 18.7578C10.8281 18.5921 10.894 18.4331 11.0112 18.3159C11.1284 18.1987 11.2874 18.1328 11.4531 18.1328H13.8359C14.2296 18.1328 14.6072 17.9764 14.8855 17.698C15.1639 17.4197 15.3203 17.0421 15.3203 16.6484V13.9531C15.3203 13.7874 15.3862 13.6284 15.5034 13.5112C15.6206 13.394 15.7796 13.3281 15.9453 13.3281C16.1111 13.3281 16.27 13.394 16.3873 13.5112C16.5045 13.6284 16.5703 13.7874 16.5703 13.9531V16.6484C16.5695 17.3734 16.2811 18.0684 15.7685 18.581C15.2559 19.0936 14.5609 19.382 13.8359 19.3828Z" fill="#081B25"/>
</svg>
