<svg width="146" height="51" viewBox="0 0 146 51" fill="none" xmlns="http://www.w3.org/2000/svg">
<g clip-path="url(#clip0_849_2062)">
<path d="M16.4936 41.3294C16.4467 40.5843 16.3975 39.8391 16.3265 39.0963C16.3151 38.9762 16.2086 38.8164 16.1056 38.771C16.0244 38.7348 15.8733 38.8339 15.768 38.8992C15.6993 38.9424 15.6559 39.0287 15.6055 39.0998C15.3457 39.466 15.0894 39.8344 14.825 40.1971C14.7952 40.2391 14.7254 40.2508 14.6751 40.2764C14.6545 40.2531 14.635 40.2286 14.6156 40.2041C14.7518 40 14.8857 39.7925 15.0264 39.5919C15.5265 38.8782 15.8985 38.1016 16.0667 37.2398C16.2418 36.3419 16.299 35.437 16.2063 34.5193C16.1205 33.6727 15.8619 32.9322 15.1626 32.4156C14.6659 32.0495 14.1555 31.6996 13.6039 31.309C13.9003 31.4058 14.1692 31.4571 14.4061 31.576C15.0962 31.92 15.8687 31.4629 15.8687 30.6805C15.8699 29.4852 15.8596 28.2899 15.8504 27.0947C15.847 26.6655 15.7314 26.5909 15.3469 26.7565C15.1386 26.8463 15.0321 26.7716 15.0791 26.5384C15.11 26.381 15.2118 26.2399 15.261 26.0848C15.4728 25.4143 15.7108 24.7484 15.8722 24.0651C16.0335 23.3806 16.1205 22.6774 16.2292 21.9812C16.267 21.7422 16.2704 21.4973 16.2956 21.2559C16.4123 20.1621 16.4295 19.0683 16.3013 17.9745C16.2475 17.5069 16.2063 17.0393 16.1594 16.5716C16.037 16.7011 15.9603 16.8422 15.9019 16.9903C15.7051 17.4917 15.4693 17.9616 15.0001 18.2613C14.5824 18.5295 14.1532 18.7803 13.755 19.0765C13.5169 19.2549 13.2686 19.4706 13.1335 19.7283C12.947 20.0828 13.0431 20.4793 13.2583 20.807C13.549 21.2501 13.8717 21.6699 14.1818 22.099C15.2885 23.4389 14.5046 22.9923 14.4542 22.9305C13.9289 22.2798 13.3819 21.6442 12.9069 20.9562C12.3931 20.2122 12.5556 19.4006 13.3132 18.8922C13.6691 18.6532 14.0239 18.4083 14.397 18.1995C15.0001 17.8614 15.3938 17.3308 15.5826 16.6952C15.9706 15.3962 16.0381 14.0843 15.427 12.8144C15.0905 12.1171 14.5114 11.6728 13.8133 11.4746C12.7707 11.1784 11.7533 11.3883 10.8138 11.9188C9.96802 12.3946 9.31341 13.064 8.93345 13.991C8.76522 14.4027 8.83732 14.5671 9.27106 14.5543C9.92682 14.5344 10.5265 14.7385 11.1182 14.9799C11.196 15.0114 11.283 15.0429 11.3047 15.191C11.3253 15.3402 11.1353 15.3099 11.0518 15.3099C10.4807 15.3052 9.90737 15.2469 9.33744 15.2761C8.60729 15.3146 7.86798 15.3612 7.15386 15.5105C6.49924 15.6481 5.85493 15.8685 5.26669 16.23C4.33054 16.8072 3.71369 17.578 3.66219 18.7383C3.63129 19.4228 3.68622 20.0991 3.87849 20.7545C3.98263 21.1043 4.11538 21.495 4.50564 21.5999C4.94281 21.7165 5.39944 21.783 5.85035 21.8098C6.54044 21.8495 7.21451 21.748 7.85196 21.4448C8.44249 21.165 9.0376 20.8921 9.63957 20.639C9.82153 20.5632 10.0092 20.3475 10.2702 20.5493C10.1065 20.6799 9.97374 20.8035 9.82497 20.9014C9.25275 21.2804 8.67023 21.6407 8.10259 22.0256C7.69518 22.3019 7.71463 22.4675 8.07169 22.8022C8.42761 23.1345 8.75721 23.4995 9.07765 23.8692C9.20468 24.0138 9.26534 24.2085 9.0376 24.3776C8.94375 24.2983 8.85105 24.2318 8.77323 24.1502C8.56037 23.9287 8.36009 23.6931 8.14265 23.4762C7.09549 22.4314 5.83204 22.0256 4.40378 22.2984C3.38066 22.4943 2.46168 22.9666 1.71894 23.7339C0.761048 24.7239 0.123598 25.8749 0.0617987 27.2987C0.012588 28.4194 0.175098 29.5108 0.654616 30.5219C0.856036 30.9463 1.18907 31.3102 1.48319 31.6845C1.60907 31.8454 1.60793 31.948 1.49463 32.1136C1.02656 32.8063 0.64546 33.5374 0.381096 34.3467C0.144198 35.0755 0.0286101 35.8032 0.0034325 36.5647C-0.0286117 37.5932 0.162509 38.5599 0.627149 39.4706C1.03571 40.2729 1.64913 40.8746 2.40903 41.3259C2.68255 41.4892 3.00643 41.3714 3.08082 41.0834C3.16894 40.7405 3.25477 40.3953 3.34289 40.0513C3.40355 39.8158 3.46535 39.5814 3.5363 39.3074C3.84759 39.7808 4.18977 39.5114 4.52738 39.3925C4.44384 39.5231 4.35686 39.6199 4.26531 39.712C3.77205 40.2088 3.4333 40.8151 3.21472 41.4682C2.99269 42.1294 2.92403 42.8325 2.98926 43.5369C3.06251 44.317 3.2788 45.0551 3.7114 45.7058C4.26302 46.5314 4.95883 47.1728 5.92931 47.4783C6.39853 47.6264 6.85631 47.6731 7.33239 47.6183C7.43653 47.6066 7.54411 47.5436 7.63223 47.4772C8.03507 47.174 8.2239 46.718 8.42418 46.2749C8.51345 46.0755 8.91171 44.7485 8.99411 44.5455C9.017 44.5525 8.63132 46.3728 8.58211 46.7157C8.42304 47.8153 8.65078 48.803 9.40954 49.6321C9.83641 50.0974 10.3217 50.4706 10.9225 50.6921C11.4272 50.8787 11.9261 51.0501 12.4686 50.9872C12.6735 50.9638 12.8726 50.8834 13.0774 50.8461C13.6645 50.7411 14.1921 50.4787 14.6785 50.1534C15.9626 49.2963 16.5371 48.0112 16.6653 46.5023C16.7202 45.8656 16.703 45.2196 16.6778 44.5805C16.6344 43.496 16.5611 42.4127 16.4936 41.3294ZM7.16301 26.704C7.73523 27.0538 8.53633 28.22 8.53633 28.5698C8.53633 28.9196 8.30745 28.803 8.07856 28.6864C7.84967 28.5698 7.3919 27.2136 6.81968 26.9582C6.24747 26.704 5.10303 26.5874 5.10303 26.5874C5.10303 26.5874 6.5908 26.3542 7.16301 26.704ZM7.73523 35.5665C7.04857 35.4499 5.90414 35.4499 5.78969 35.2166C5.67525 34.9834 6.47635 35.1 6.5908 34.7502C6.70524 34.4004 5.21747 32.6512 5.67525 32.0681C5.7462 31.9772 6.13302 33.4675 7.27746 34.517C8.42189 35.5665 9.68077 36.0329 9.68077 36.616C9.68077 36.8492 8.42189 35.6831 7.73523 35.5665ZM12.1985 27.6369C11.1685 29.2695 9.22299 28.803 9.22299 28.803C9.22299 28.803 11.3974 28.4532 11.9696 27.2871C12.5293 26.1466 11.8849 24.226 11.8563 24.1409C11.9044 24.2062 13.2102 26.0335 12.1985 27.6369ZM13.343 45.4784C13.2285 45.4784 12.9996 44.7788 12.8852 44.5455C12.7707 44.3123 12.7707 43.8459 12.7707 43.6127C12.7707 43.6127 13.2285 44.4289 13.343 44.7788C13.4574 45.1286 13.4574 45.4784 13.343 45.4784Z" fill="#164760"/>
<path d="M21.2396 50.2595C23.199 50.2595 24.7874 48.641 24.7874 46.6446C24.7874 44.6481 23.199 43.0296 21.2396 43.0296C19.2803 43.0296 17.6919 44.6481 17.6919 46.6446C17.6919 48.641 19.2803 50.2595 21.2396 50.2595Z" fill="#164760"/>
<path d="M28.1063 46.8778C30.0657 46.8778 31.6541 45.2593 31.6541 43.2628C31.6541 41.2664 30.0657 39.6479 28.1063 39.6479C26.147 39.6479 24.5586 41.2664 24.5586 43.2628C24.5586 45.2593 26.147 46.8778 28.1063 46.8778Z" fill="#164760"/>
<path d="M20.5528 42.2133C21.9117 42.2133 23.0134 41.0908 23.0134 39.7062C23.0134 38.3215 21.9117 37.199 20.5528 37.199C19.1939 37.199 18.0923 38.3215 18.0923 39.7062C18.0923 41.0908 19.1939 42.2133 20.5528 42.2133Z" fill="#164760"/>
<path d="M24.6154 37.7821C26.0059 37.7821 27.1332 36.6335 27.1332 35.2166C27.1332 33.7998 26.0059 32.6512 24.6154 32.6512C23.2249 32.6512 22.0977 33.7998 22.0977 35.2166C22.0977 36.6335 23.2249 37.7821 24.6154 37.7821Z" fill="#164760"/>
<path d="M19.9808 35.5665C20.9289 35.5665 21.6975 34.7833 21.6975 33.8173C21.6975 32.8512 20.9289 32.0681 19.9808 32.0681C19.0327 32.0681 18.2642 32.8512 18.2642 33.8173C18.2642 34.7833 19.0327 35.5665 19.9808 35.5665Z" fill="#164760"/>
<path d="M20.3242 30.5522C21.3038 30.5522 22.098 29.743 22.098 28.7447C22.098 27.7465 21.3038 26.9373 20.3242 26.9373C19.3445 26.9373 18.5503 27.7465 18.5503 28.7447C18.5503 29.743 19.3445 30.5522 20.3242 30.5522Z" fill="#164760"/>
<path d="M31.5969 22.0395C32.3237 22.0395 32.913 21.4391 32.913 20.6985C32.913 19.9579 32.3237 19.3575 31.5969 19.3575C30.87 19.3575 30.2808 19.9579 30.2808 20.6985C30.2808 21.4391 30.87 22.0395 31.5969 22.0395Z" fill="#164760"/>
<path d="M26.4467 13.9934C27.4264 13.9934 28.2206 13.1841 28.2206 12.1859C28.2206 11.1877 27.4264 10.3784 26.4467 10.3784C25.467 10.3784 24.6729 11.1877 24.6729 12.1859C24.6729 13.1841 25.467 13.9934 26.4467 13.9934Z" fill="#164760"/>
<path d="M25.3024 8.0462C26.0293 8.0462 26.6185 7.4458 26.6185 6.70517C26.6185 5.96454 26.0293 5.36414 25.3024 5.36414C24.5756 5.36414 23.9863 5.96454 23.9863 6.70517C23.9863 7.4458 24.5756 8.0462 25.3024 8.0462Z" fill="#164760"/>
<path d="M21.9835 9.79537C22.6787 9.79537 23.2424 9.22107 23.2424 8.51264C23.2424 7.80422 22.6787 7.22992 21.9835 7.22992C21.2882 7.22992 20.7246 7.80422 20.7246 8.51264C20.7246 9.22107 21.2882 9.79537 21.9835 9.79537Z" fill="#164760"/>
<path d="M16.4328 7.22991C17.1597 7.22991 17.7489 6.62951 17.7489 5.88888C17.7489 5.14825 17.1597 4.54785 16.4328 4.54785C15.7059 4.54785 15.1167 5.14825 15.1167 5.88888C15.1167 6.62951 15.7059 7.22991 16.4328 7.22991Z" fill="#164760"/>
<path d="M21.4114 4.43123C21.8222 4.43123 22.1552 4.09187 22.1552 3.67326C22.1552 3.25464 21.8222 2.91528 21.4114 2.91528C21.0005 2.91528 20.6675 3.25464 20.6675 3.67326C20.6675 4.09187 21.0005 4.43123 21.4114 4.43123Z" fill="#164760"/>
<path d="M18.0925 1.51595C18.5033 1.51595 18.8364 1.17659 18.8364 0.757974C18.8364 0.339357 18.5033 0 18.0925 0C17.6817 0 17.3486 0.339357 17.3486 0.757974C17.3486 1.17659 17.6817 1.51595 18.0925 1.51595Z" fill="#164760"/>
<path d="M20.2668 25.0715C22.005 25.0715 23.414 23.6357 23.414 21.8647C23.414 20.0936 22.005 18.6578 20.2668 18.6578C18.5287 18.6578 17.1196 20.0936 17.1196 21.8647C17.1196 23.6357 18.5287 25.0715 20.2668 25.0715Z" fill="#164760"/>
<path d="M26.9043 21.6897C28.5793 21.6897 29.9371 20.3062 29.9371 18.5995C29.9371 16.8929 28.5793 15.5093 26.9043 15.5093C25.2294 15.5093 23.8716 16.8929 23.8716 18.5995C23.8716 20.3062 25.2294 21.6897 26.9043 21.6897Z" fill="#164760"/>
<path d="M21.4114 17.7249C23.1495 17.7249 24.5585 16.2892 24.5585 14.5181C24.5585 12.747 23.1495 11.3113 21.4114 11.3113C19.6732 11.3113 18.2642 12.747 18.2642 14.5181C18.2642 16.2892 19.6732 17.7249 21.4114 17.7249Z" fill="#164760"/>
<path d="M28.3924 33.1176C31.3315 33.1176 33.714 30.6899 33.714 27.6952C33.714 24.7005 31.3315 22.2728 28.3924 22.2728C25.4534 22.2728 23.0708 24.7005 23.0708 27.6952C23.0708 30.6899 25.4534 33.1176 28.3924 33.1176Z" fill="#164760"/>
<path d="M31.2535 39.298C32.7704 39.298 34.0001 38.045 34.0001 36.4994C34.0001 34.9537 32.7704 33.7007 31.2535 33.7007C29.7365 33.7007 28.5068 34.9537 28.5068 36.4994C28.5068 38.045 29.7365 39.298 31.2535 39.298Z" fill="#164760"/>
</g>
<path d="M43.06 28.64H45.12V30.62C45.92 30.82 46.78 30.92 47.52 30.92C49.28 30.92 50.38 30.28 50.38 28.66C50.38 25.26 43.1 27.06 43.1 22.18C43.1 19.24 45.32 18.26 47.66 18.26C49.58 18.26 51.2 18.74 52.22 19.32V22.34H50.18V20.48C49.48 20.26 48.7 20.1 47.76 20.1C46.3 20.1 45.34 20.62 45.34 21.96C45.34 25.14 52.62 23.34 52.62 28.42C52.62 31.56 50.3 32.74 47.4 32.74C45.74 32.74 43.94 32.42 43.06 31.98V28.64ZM54.2834 27.46C54.2834 24.34 56.0834 22.26 59.1034 22.26C62.0634 22.26 63.7834 24.18 63.7834 27.06V27.84H56.6634C56.7834 29.6 57.7634 30.84 59.6834 30.84C61.0434 30.84 61.9434 30.42 62.5434 29.9L63.6434 31.26C62.7434 32.16 61.2834 32.74 59.4834 32.74C56.3434 32.74 54.2834 30.94 54.2834 27.46ZM59.1034 24C57.8434 24 57.0234 24.8 56.7434 26.2H61.4634C61.2234 24.78 60.4034 24 59.1034 24ZM76.8 30.68V32.5H73.24V26.94C73.24 25.2 72.52 24.36 71.28 24.36C70.06 24.36 68.92 25.1 68.92 27.04V30.68H70.14V32.5H65.38V30.68H66.6V24.32H65.38V22.5H68.54L68.82 24.02C69.4 22.98 70.52 22.26 71.94 22.26C74.36 22.26 75.58 23.98 75.58 26.82V30.68H76.8ZM78.2525 29.34H80.1325V30.84C80.8725 30.98 81.6325 31.02 82.3525 31.02C83.6525 31.02 84.4525 30.64 84.4525 29.86C84.4525 29.18 83.9725 28.88 82.6925 28.58L81.1725 28.22C79.1525 27.74 78.1325 26.9 78.1325 25.3C78.1325 23.06 80.1325 22.26 82.3725 22.26C83.9725 22.26 85.3725 22.64 86.1325 23.02V25.74H84.2725V24.22C83.6525 24.08 82.9925 23.98 82.3525 23.98C81.2525 23.98 80.2325 24.24 80.2325 25.08C80.2325 25.6 80.5725 25.9 81.7725 26.18L83.3325 26.52C85.2125 26.92 86.5325 27.56 86.5325 29.52C86.5325 31.98 84.5325 32.74 82.3525 32.74C80.9725 32.74 79.3725 32.58 78.2525 32.16V29.34ZM88.0916 27.46C88.0916 24.38 90.0916 22.26 93.1916 22.26C96.2516 22.26 98.2316 24.38 98.2316 27.46C98.2316 30.52 96.2516 32.74 93.1916 32.74C90.0916 32.74 88.0916 30.52 88.0916 27.46ZM95.7716 27.44C95.7716 25.68 94.8716 24.34 93.1916 24.34C91.4716 24.34 90.5516 25.68 90.5516 27.46C90.5516 29.24 91.4516 30.66 93.1916 30.66C94.8516 30.66 95.7716 29.24 95.7716 27.44ZM105.013 30.68V32.5H99.8527V30.68H101.073V24.34H99.8527V22.5H103.013L103.393 24.16C103.813 23.1 104.653 22.26 105.973 22.26C106.373 22.26 106.853 22.34 107.273 22.5L106.913 24.54C106.413 24.42 106.053 24.4 105.693 24.4C104.273 24.4 103.393 25.58 103.393 28.52V30.68H105.013ZM109.21 19.48C109.21 18.72 109.73 18.1 110.65 18.1C111.55 18.1 112.09 18.72 112.09 19.48C112.09 20.24 111.55 20.84 110.65 20.84C109.73 20.84 109.21 20.24 109.21 19.48ZM108.29 24.32V22.5H111.83V30.68H113.05V32.5H108.29V30.68H109.51V24.32H108.29ZM120.84 24.32V22.5H124.4V30.68H125.62V32.5H122.46L122.18 31.1C121.58 32.1 120.38 32.76 119.08 32.76C116.82 32.76 115.42 31.26 115.42 28.28V24.32H114.2V22.5H117.74V28.26C117.74 29.98 118.6 30.66 119.78 30.66C121.24 30.66 122.06 29.52 122.06 28.26V24.32H120.84ZM133.558 32.5V30.68H134.778V26.66C134.778 25.08 133.918 24.32 132.858 24.32C131.618 24.32 130.658 25.34 130.658 26.7V30.68H131.878V32.5H127.118V30.68H128.338V24.32H127.118V22.5H130.258L130.558 23.86C131.098 22.9 132.238 22.26 133.478 22.26C134.898 22.26 135.978 22.86 136.578 24C137.398 22.84 138.378 22.26 139.898 22.26C142.258 22.26 143.498 23.82 143.498 26.54V30.68H144.718V32.5H139.978V30.68H141.198V26.66C141.198 24.98 140.358 24.32 139.318 24.32C138.218 24.32 137.278 25.06 137.098 26.24V30.68H138.318V32.5H133.558Z" fill="#164760"/>
<defs>
<clipPath id="clip0_849_2062">
<rect width="34" height="51" fill="white"/>
</clipPath>
</defs>
</svg>
