<svg width="24" height="24" viewBox="0 0 24 24" fill="none" xmlns="http://www.w3.org/2000/svg">
<path d="M4.5625 22C3.88314 21.9992 3.23184 21.7289 2.75145 21.2485C2.27107 20.7682 2.00083 20.1169 2 19.4375L2 12.8316C2 9.40078 4.79141 6.60938 8.22227 6.60938H8.40625C9.00691 6.6101 9.58276 6.84903 10.0075 7.27376C10.4322 7.69849 10.6712 8.27434 10.6719 8.875V18.9922C10.6713 19.5825 10.4365 20.1485 10.019 20.5659C9.60162 20.9833 9.03564 21.2181 8.44531 21.2188H6.9375C6.85502 21.2186 6.77334 21.2349 6.69727 21.2668L5.28359 21.8559C5.05518 21.9513 4.81005 22.0003 4.5625 22ZM8.22227 7.85938C6.90398 7.86082 5.64011 8.38515 4.70794 9.31732C3.77577 10.2495 3.25145 11.5134 3.25 12.8316V19.4375C3.25031 19.7855 3.38869 20.1192 3.63477 20.3652C3.88084 20.6113 4.2145 20.7497 4.5625 20.75C4.64498 20.7501 4.72666 20.7338 4.80273 20.702L6.21641 20.1129C6.44482 20.0175 6.68995 19.9685 6.9375 19.9688H8.44531C8.70431 19.9688 8.95271 19.8659 9.13585 19.6827C9.31899 19.4996 9.42188 19.2512 9.42188 18.9922V8.875C9.42188 8.60564 9.31487 8.34731 9.12441 8.15684C8.93394 7.96638 8.67561 7.85938 8.40625 7.85938H8.22227Z" fill="#081B25"/>
<path d="M19.4375 22C19.19 22.0003 18.9448 21.9513 18.7164 21.8559L17.3027 21.2668C17.2267 21.2349 17.145 21.2186 17.0625 21.2188H15.5547C14.9644 21.2181 14.3984 20.9833 13.981 20.5659C13.5635 20.1485 13.3287 19.5825 13.3281 18.9922V8.875C13.3288 8.27434 13.5678 7.69849 13.9925 7.27376C14.4172 6.84903 14.9931 6.6101 15.5938 6.60938H15.7777C19.2086 6.60938 22 9.40078 22 12.8316V19.4375C21.9992 20.1169 21.7289 20.7682 21.2485 21.2485C20.7682 21.7289 20.1169 21.9992 19.4375 22ZM15.5938 7.85938C15.3244 7.85938 15.0661 7.96638 14.8756 8.15684C14.6851 8.34731 14.5781 8.60564 14.5781 8.875V18.9922C14.5781 19.2512 14.681 19.4996 14.8642 19.6827C15.0473 19.8659 15.2957 19.9688 15.5547 19.9688H17.0625C17.31 19.9685 17.5552 20.0175 17.7836 20.1129L19.1973 20.702C19.2733 20.7338 19.355 20.7501 19.4375 20.75C19.7855 20.7497 20.1192 20.6113 20.3652 20.3652C20.6113 20.1192 20.7497 19.7855 20.75 19.4375V12.8316C20.7486 11.5134 20.2242 10.2495 19.2921 9.31732C18.3599 8.38515 17.096 7.86082 15.7777 7.85938H15.5938Z" fill="#081B25"/>
<path d="M4.50682 18.2805C4.45138 18.2199 4.40841 18.149 4.38037 18.0719C4.35232 17.9947 4.33976 17.9128 4.34338 17.8308C4.34701 17.7488 4.36676 17.6683 4.40151 17.5939C4.43625 17.5195 4.48531 17.4527 4.54589 17.3973L6.19276 15.8969L7.39081 12.7172C7.42474 12.6271 7.47902 12.5461 7.5494 12.4805L11.5728 8.73047C11.6946 8.62091 11.8546 8.56355 12.0182 8.57073C12.1819 8.57792 12.3362 8.64907 12.4479 8.76889C12.5597 8.88871 12.6199 9.0476 12.6156 9.21137C12.6114 9.37514 12.543 9.53069 12.4252 9.64454L8.50995 13.2949L7.31268 16.4781C7.27776 16.5704 7.2217 16.6532 7.14901 16.7199L5.3912 18.3215C5.3305 18.377 5.25944 18.42 5.1821 18.4479C5.10476 18.4759 5.02266 18.4884 4.9405 18.4846C4.85834 18.4808 4.77774 18.4608 4.70332 18.4257C4.6289 18.3907 4.56213 18.3414 4.50682 18.2805Z" fill="#081B25"/>
<path d="M7.46868 18.2891C7.35489 18.2891 7.24323 18.2581 7.14575 18.1994C7.04828 18.1407 6.96868 18.0565 6.91556 17.9559L6.17337 16.5496C6.09598 16.403 6.07999 16.2317 6.12893 16.0733C6.17787 15.9149 6.28771 15.7825 6.43431 15.7051C6.5809 15.6277 6.75223 15.6117 6.91061 15.6606C7.06899 15.7096 7.20145 15.8194 7.27884 15.966L8.02103 17.3723C8.0713 17.4675 8.09611 17.5741 8.09307 17.6817C8.09003 17.7893 8.05924 17.8944 8.00367 17.9866C7.94811 18.0788 7.86965 18.1551 7.77592 18.2081C7.68219 18.2611 7.57636 18.289 7.46868 18.2891Z" fill="#081B25"/>
<path d="M4.2291 15.0344C4.10813 14.9211 4.03709 14.7645 4.03159 14.5988C4.0261 14.4332 4.08661 14.2722 4.19981 14.1512L5.33262 12.9402C5.42226 12.8444 5.53979 12.7792 5.66856 12.7539L6.91387 12.5078L6.37051 11.732C6.2754 11.5962 6.23815 11.4282 6.26694 11.2649C6.29573 11.1016 6.3882 10.9564 6.52402 10.8613C6.65984 10.7662 6.82788 10.729 6.99117 10.7578C7.15446 10.7865 7.29962 10.879 7.39473 11.0148L8.48848 12.5773C8.54819 12.6625 8.58569 12.7613 8.59758 12.8646C8.60948 12.968 8.59539 13.0726 8.55659 13.1692C8.5178 13.2657 8.45552 13.351 8.37542 13.4174C8.29531 13.4837 8.19991 13.5291 8.09785 13.5492L6.1084 13.9398L5.11231 15.0051C4.99905 15.1261 4.84239 15.1971 4.67677 15.2026C4.51115 15.2081 4.35012 15.1476 4.2291 15.0344Z" fill="#081B25"/>
<path d="M18.61 18.3215L16.8522 16.7199C16.7795 16.6532 16.7235 16.5704 16.6885 16.4781L15.4901 13.2949L11.5737 9.64453C11.512 9.589 11.4619 9.52174 11.4265 9.44667C11.3911 9.3716 11.3709 9.29022 11.3673 9.20728C11.3637 9.12434 11.3766 9.04151 11.4053 8.96362C11.434 8.88573 11.478 8.81435 11.5346 8.75363C11.5912 8.69291 11.6594 8.64409 11.7351 8.61C11.8107 8.57591 11.8925 8.55724 11.9755 8.55508C12.0585 8.55292 12.141 8.56732 12.2184 8.59744C12.2958 8.62755 12.3664 8.67277 12.426 8.73046L16.4495 12.4805C16.5199 12.5461 16.5741 12.6271 16.6081 12.7172L17.8053 15.8969L19.4522 17.3973C19.5129 17.4526 19.5621 17.5193 19.597 17.5936C19.6319 17.6679 19.6518 17.7484 19.6556 17.8304C19.6595 17.9124 19.6471 17.9943 19.6192 18.0716C19.5913 18.1488 19.5485 18.2198 19.4932 18.2805C19.4379 18.3411 19.3712 18.3903 19.2969 18.4253C19.2226 18.4602 19.1421 18.4801 19.0601 18.4839C18.9781 18.4877 18.8962 18.4753 18.8189 18.4474C18.7417 18.4196 18.6707 18.3768 18.61 18.3215Z" fill="#081B25"/>
<path d="M16.5314 18.2891C16.4237 18.289 16.3179 18.2611 16.2241 18.2081C16.1304 18.1551 16.052 18.0788 15.9964 17.9866C15.9408 17.8944 15.91 17.7893 15.907 17.6817C15.9039 17.5741 15.9288 17.4675 15.979 17.3723L16.7212 15.966C16.7986 15.8194 16.9311 15.7096 17.0894 15.6606C17.2478 15.6117 17.4192 15.6277 17.5658 15.7051C17.7123 15.7825 17.8222 15.9149 17.8711 16.0733C17.9201 16.2317 17.9041 16.403 17.8267 16.5496L17.0845 17.9559C17.0314 18.0565 16.9518 18.1407 16.8543 18.1994C16.7568 18.2581 16.6452 18.2891 16.5314 18.2891Z" fill="#081B25"/>
<path d="M18.8876 15.0051L17.8927 13.9414L15.9032 13.5508C15.8012 13.5306 15.7058 13.4853 15.6257 13.4189C15.5456 13.3526 15.4833 13.2672 15.4445 13.1707C15.4057 13.0742 15.3916 12.9695 15.4035 12.8662C15.4154 12.7628 15.4529 12.6641 15.5126 12.5789L16.6064 11.0164C16.6535 10.9491 16.7133 10.8918 16.7826 10.8477C16.8518 10.8036 16.9291 10.7736 17.0099 10.7593C17.0908 10.7451 17.1736 10.7469 17.2538 10.7646C17.334 10.7824 17.4098 10.8158 17.4771 10.8629C17.5443 10.91 17.6016 10.9699 17.6458 11.0391C17.6899 11.1083 17.7199 11.1856 17.7342 11.2664C17.7484 11.3473 17.7466 11.4302 17.7288 11.5103C17.7111 11.5905 17.6777 11.6663 17.6306 11.7336L17.0861 12.5078L18.3314 12.7523C18.4601 12.7776 18.5777 12.8428 18.6673 12.9387L19.8001 14.1496C19.9093 14.2713 19.9664 14.4309 19.9593 14.5943C19.9522 14.7576 19.8813 14.9116 19.762 15.0233C19.6426 15.135 19.4842 15.1955 19.3207 15.1918C19.1573 15.1881 19.0018 15.1205 18.8876 15.0035V15.0051Z" fill="#081B25"/>
<path d="M12 9.8125C11.8342 9.8125 11.6753 9.74665 11.5581 9.62944C11.4408 9.51223 11.375 9.35326 11.375 9.1875V2.625C11.375 2.45924 11.4408 2.30027 11.5581 2.18306C11.6753 2.06585 11.8342 2 12 2C12.1658 2 12.3247 2.06585 12.4419 2.18306C12.5592 2.30027 12.625 2.45924 12.625 2.625V9.1875C12.625 9.35326 12.5592 9.51223 12.4419 9.62944C12.3247 9.74665 12.1658 9.8125 12 9.8125Z" fill="#081B25"/>
</svg>
