<svg width="28" height="28" viewBox="0 0 28 28" fill="none" xmlns="http://www.w3.org/2000/svg">
<path d="M6.82792 19.4706C6.56637 19.4708 6.30745 19.4184 6.06659 19.3164C5.82573 19.2144 5.60785 19.065 5.42595 18.8771C5.24404 18.6891 5.10183 18.4665 5.00778 18.2224C4.91373 17.9784 4.86976 17.7179 4.87851 17.4565L5.00197 13.6643C5.01096 13.3861 4.97087 13.1085 4.88352 12.8442C3.96553 10.0652 6.07759 7.22649 9.00285 7.30667C9.1433 7.31052 9.27964 7.35489 9.39546 7.43442C9.51128 7.51395 9.60166 7.62526 9.65569 7.75496L10.8024 10.5071C11.107 11.2379 11.1759 12.0456 10.9995 12.8174C10.8231 13.5893 10.4102 14.2868 9.81834 14.8128C9.63502 14.9781 9.48981 15.1812 9.39274 15.4081C9.29567 15.6351 9.24907 15.8804 9.25615 16.1271L9.26754 16.7412C9.28024 17.4045 9.04777 18.0492 8.61467 18.5517C8.18158 19.0542 7.5783 19.3793 6.92041 19.4647C6.88974 19.4686 6.85885 19.4706 6.82792 19.4706ZM8.50673 8.78821C6.8753 9.00688 5.70538 10.6857 6.26756 12.3873C6.40899 12.814 6.47377 13.2623 6.45891 13.7116L6.33544 17.5039C6.33077 17.6303 6.37491 17.7536 6.4587 17.8483C6.5425 17.9431 6.65954 18.0019 6.78556 18.0127C7.07687 17.9624 7.34051 17.8093 7.52872 17.5814C7.71693 17.3534 7.81725 17.0655 7.81152 16.7699L7.80058 16.1558C7.78933 15.699 7.87717 15.2453 8.05806 14.8257C8.23894 14.4061 8.50858 14.0307 8.84841 13.7253C9.21334 13.401 9.46794 12.9708 9.57672 12.4949C9.6855 12.0189 9.64303 11.5209 9.45524 11.0702L8.50673 8.78821Z" fill="#FF3A29"/>
<path d="M12.3652 25.6665C11.7103 25.6662 11.0649 25.5091 10.4831 25.2084C9.90128 24.9077 9.39988 24.4721 9.02082 23.938L8.65272 23.4191C8.44571 23.1264 8.18107 22.8791 7.87505 22.6924L7.10056 22.2195C6.24244 21.6956 5.60709 20.8743 5.31561 19.912C5.00719 18.8961 4.88281 18.5376 4.88281 17.4661C4.88281 17.2727 4.95961 17.0873 5.09631 16.9506C5.23301 16.8139 5.41841 16.7371 5.61174 16.7371C5.80506 16.7371 5.99046 16.8139 6.12716 16.9506C6.26386 17.0873 6.34066 17.2727 6.34066 17.4661C6.34066 18.3535 6.43998 18.5973 6.71105 19.4884C6.89922 20.1079 7.30864 20.6367 7.86138 20.974L8.63586 21.4469C9.11057 21.7363 9.5211 22.1197 9.84223 22.5735L10.2103 23.0924C10.4542 23.4371 10.7771 23.7183 11.1521 23.9125C11.527 24.1067 11.943 24.2083 12.3652 24.2086C13.0539 24.2094 13.7319 24.0392 14.3385 23.7132C14.9451 23.3872 15.4611 22.9155 15.8404 22.3407L16.7998 20.8902C18.5178 18.2934 19.0823 14.9144 18.0444 11.7836L17.265 9.87021C17.2288 9.78154 17.2105 9.68663 17.211 9.59089C17.2116 9.49514 17.231 9.40044 17.2681 9.3122C17.3431 9.13398 17.4859 8.99285 17.665 8.91987C17.7536 8.88374 17.8485 8.86542 17.9443 8.86596C18.04 8.86651 18.1347 8.88591 18.223 8.92305C18.4012 8.99806 18.5423 9.1408 18.6153 9.31987C19.47 11.4187 19.4089 11.2666 19.4203 11.3003C20.6098 14.8633 19.9834 18.7198 18.0153 21.6952L17.0563 23.1457C16.5443 23.9215 15.8476 24.558 15.0288 24.998C14.21 25.438 13.2947 25.6677 12.3652 25.6665Z" fill="#FF3A29"/>
<path d="M12.2631 17.2838C12.1295 17.2837 11.9985 17.2469 11.8844 17.1774C11.7703 17.1079 11.6775 17.0083 11.6162 16.8897C11.5548 16.771 11.5272 16.6377 11.5365 16.5045C11.5457 16.3712 11.5914 16.243 11.6686 16.1339L12.2932 15.251C12.6247 14.7781 12.7557 14.1933 12.6576 13.6242C12.5465 12.9862 12.6081 12.3302 12.8359 11.724C13.0637 11.1178 13.4495 10.5837 13.9533 10.1768C14.7393 9.54152 15.6874 9.13907 16.6904 9.01508L20.8954 8.49299L20.7209 6.79961L13.4048 7.23423C12.7083 7.27498 12.0255 7.44492 11.3911 7.73537L9.28591 8.69755C9.19859 8.73927 9.10384 8.7632 9.00718 8.76792C8.91053 8.77265 8.81389 8.75808 8.72293 8.72506C8.63196 8.69205 8.54847 8.64125 8.47734 8.57563C8.40622 8.51001 8.34886 8.43089 8.30864 8.34287C8.26841 8.25485 8.24611 8.15971 8.24304 8.06298C8.23997 7.96626 8.2562 7.86989 8.29076 7.7795C8.32533 7.68911 8.37755 7.60651 8.44438 7.53651C8.5112 7.46652 8.5913 7.41053 8.67999 7.37182L10.7852 6.40918C11.5831 6.04369 12.4421 5.82988 13.3182 5.77866L21.3314 5.30213C21.5189 5.29092 21.7036 5.35256 21.8468 5.4742C21.99 5.59584 22.0807 5.76807 22.0999 5.95497L22.4188 9.0529C22.4388 9.24265 22.3836 9.43267 22.265 9.58215C22.1464 9.73164 21.974 9.82868 21.7847 9.85244L16.8699 10.462C16.1369 10.5528 15.444 10.847 14.8695 11.3112C14.5681 11.5545 14.3374 11.874 14.2012 12.2366C14.065 12.5992 14.0284 12.9916 14.095 13.3731C14.2584 14.325 14.0382 15.3029 13.4827 16.0929L12.8581 16.9758C12.7908 17.071 12.7016 17.1487 12.5981 17.2022C12.4946 17.2558 12.3797 17.2838 12.2631 17.2838Z" fill="#FF3A29"/>
<path d="M11.9895 20.3166L10.5316 20.2647V20.2738C10.5316 20.1918 10.5175 19.4624 9.77992 19.1348C8.90111 18.7444 8.28381 18.3362 7.89292 17.887C7.77385 17.7403 7.7164 17.5531 7.7327 17.3648C7.74899 17.1766 7.83775 17.002 7.98026 16.8779C8.12277 16.7538 8.3079 16.69 8.4966 16.6997C8.68531 16.7095 8.86284 16.7922 8.99177 16.9303C9.16034 17.1239 9.53847 17.4314 10.3722 17.8036C11.6984 18.3918 12.0123 19.6601 11.9895 20.3166Z" fill="#FF3A29"/>
<path d="M15.8645 15.7955C15.8527 15.6743 15.762 15.0638 15.1356 14.9481C14.6535 14.8616 14.1932 14.6806 13.7813 14.4153C13.3695 14.1501 13.0143 13.806 12.7361 13.4028C12.6788 13.3246 12.6378 13.2358 12.6152 13.1416C12.5927 13.0474 12.5891 12.9497 12.6048 12.8541C12.6205 12.7585 12.6551 12.667 12.7065 12.5849C12.758 12.5028 12.8253 12.4318 12.9045 12.376C12.9837 12.3203 13.0732 12.2808 13.1678 12.2601C13.2624 12.2393 13.3603 12.2376 13.4555 12.255C13.5508 12.2725 13.6417 12.3088 13.7228 12.3618C13.8039 12.4147 13.8736 12.4833 13.9279 12.5636C14.0974 12.8126 14.3151 13.0251 14.5682 13.1885C14.8212 13.3519 15.1045 13.4629 15.4012 13.5148C16.8135 13.7759 17.2691 15.0474 17.3146 15.6829L15.8618 15.7868L15.8645 15.7955Z" fill="#FF3A29"/>
<path d="M11.8423 25.4459C11.7078 25.3078 11.6336 25.1219 11.6358 24.9291C11.638 24.7363 11.7165 24.5523 11.8542 24.4172C11.8783 24.3931 12.8519 23.3972 12.6792 22.1193C12.6664 22.0244 12.6724 21.9279 12.6969 21.8354C12.7214 21.7428 12.7639 21.656 12.8219 21.5798C12.8799 21.5037 12.9524 21.4397 13.0352 21.3916C13.1179 21.3434 13.2094 21.3121 13.3043 21.2993C13.3991 21.2865 13.4956 21.2925 13.5882 21.317C13.6807 21.3414 13.7676 21.3839 13.8437 21.442C13.9199 21.5 13.9838 21.5725 14.032 21.6552C14.0801 21.738 14.1115 21.8294 14.1243 21.9243C14.3976 23.9507 12.9357 25.3995 12.8733 25.4601C12.8047 25.5268 12.7236 25.5795 12.6346 25.6149C12.5457 25.6503 12.4506 25.6679 12.3549 25.6666C12.2591 25.6653 12.1646 25.6451 12.0766 25.6073C11.9887 25.5694 11.9091 25.5146 11.8423 25.4459Z" fill="#FF3A29"/>
<path d="M6.75367 9.48979C6.60493 9.48983 6.45975 9.44438 6.33759 9.35952C6.21544 9.27466 6.12217 9.15447 6.0703 9.01508C5.72087 8.07477 5.24707 6.93673 5.24707 5.16089V3.06979C5.24707 2.87647 5.32387 2.69106 5.46057 2.55436C5.59727 2.41766 5.78267 2.34087 5.97599 2.34087H8.89169C9.08501 2.34087 9.27042 2.41766 9.40712 2.55436C9.54382 2.69106 9.62062 2.87647 9.62062 3.06979V4.74313C9.61935 5.17387 9.78833 5.58766 10.0908 5.89437L11.0156 6.83468C11.1382 6.97483 11.2025 7.15656 11.1953 7.34261C11.1881 7.52865 11.1101 7.70491 10.9771 7.83521C10.8441 7.96551 10.6663 8.03999 10.4801 8.04337C10.294 8.04674 10.1136 7.97875 9.97597 7.85336L9.05114 6.91259C8.48064 6.3348 8.16136 5.55511 8.16277 4.74313V3.79871H6.70492V5.16089C6.70439 6.07153 6.86686 6.97491 7.18464 7.8283L7.43703 8.50665C7.47806 8.61691 7.49179 8.73546 7.47706 8.85217C7.46232 8.96889 7.41955 9.0803 7.35241 9.1769C7.28526 9.2735 7.19574 9.35241 7.09147 9.4069C6.98721 9.46138 6.87131 9.48982 6.75367 9.48979Z" fill="#FF3A29"/>
<path d="M16.9427 7.0233C16.8078 7.02331 16.6756 6.98593 16.5608 6.91532C16.4459 6.8447 16.3529 6.74362 16.2921 6.6233L16.0274 6.10166C15.7706 5.60004 15.3584 5.19503 14.8522 4.94727C14.3461 4.6995 13.7733 4.62229 13.2197 4.72719C11.3103 5.0962 11.9021 5.03425 8.90262 5.07434C8.80689 5.07559 8.71186 5.05798 8.62294 5.02251C8.53402 4.98704 8.45296 4.9344 8.38439 4.8676C8.31581 4.80081 8.26107 4.72115 8.22327 4.6332C8.18548 4.54524 8.16538 4.4507 8.16413 4.35498C8.16287 4.25926 8.18048 4.16422 8.21595 4.0753C8.25142 3.98639 8.30406 3.90533 8.37086 3.83675C8.43766 3.76818 8.51731 3.71343 8.60526 3.67564C8.69322 3.63784 8.78776 3.61774 8.88348 3.61649C11.8142 3.57731 11.1564 3.64109 12.9431 3.29758C13.808 3.13348 14.7028 3.25399 15.4935 3.64107C16.2841 4.02815 16.9281 4.66095 17.329 5.44472L17.5932 5.96454C17.6496 6.0757 17.6766 6.19948 17.6715 6.32404C17.6664 6.4486 17.6295 6.56977 17.5642 6.67598C17.499 6.7822 17.4076 6.8699 17.2987 6.9307C17.1899 6.99151 17.0673 7.02339 16.9427 7.0233Z" fill="#FF3A29"/>
<path d="M15.8363 5.76636C15.6971 5.63235 15.6167 5.4485 15.6129 5.25525C15.6092 5.062 15.6823 4.87517 15.8163 4.73584L17.0231 3.47662C17.1576 3.34027 17.3403 3.26233 17.5318 3.25964C17.7233 3.25695 17.9082 3.32973 18.0465 3.46225C18.1847 3.59476 18.2653 3.77637 18.2707 3.9678C18.2761 4.15924 18.206 4.34512 18.0755 4.48527L16.8669 5.74449C16.7331 5.88403 16.5494 5.96472 16.3561 5.96882C16.1629 5.97292 15.9759 5.90009 15.8363 5.76636Z" fill="#FF3A29"/>
<path d="M13.7426 4.52035C13.603 4.38659 13.5223 4.20288 13.5182 4.00963C13.5141 3.81637 13.587 3.6294 13.7207 3.48984L14.6068 2.56547C14.6726 2.49478 14.7519 2.43788 14.8399 2.39807C14.9279 2.35827 15.023 2.33636 15.1195 2.33362C15.2161 2.33088 15.3122 2.34736 15.4024 2.3821C15.4925 2.41685 15.5748 2.46916 15.6446 2.53601C15.7143 2.60285 15.7701 2.68289 15.8086 2.77147C15.8472 2.86006 15.8677 2.95542 15.8691 3.05201C15.8704 3.14861 15.8526 3.2445 15.8165 3.33414C15.7805 3.42377 15.727 3.50534 15.6592 3.57412L14.7731 4.49849C14.6393 4.63802 14.4556 4.71872 14.2623 4.72282C14.0691 4.72692 13.8821 4.65409 13.7426 4.52035Z" fill="#FF3A29"/>
</svg>
