<svg width="190" height="66" viewBox="0 0 190 66" fill="none" xmlns="http://www.w3.org/2000/svg">
<g clip-path="url(#clip0_849_388)">
<path d="M21.6115 53.4852C21.55 52.5209 21.4855 51.5566 21.3925 50.5953C21.3775 50.4398 21.2381 50.2331 21.1031 50.1742C20.9966 50.1275 20.7987 50.2557 20.6607 50.3402C20.5708 50.3961 20.5138 50.5077 20.4478 50.5998C20.1074 51.0737 19.7715 51.5505 19.4251 52.0199C19.3861 52.0742 19.2947 52.0893 19.2287 52.1225C19.2017 52.0923 19.1762 52.0606 19.1507 52.0289C19.3291 51.7648 19.5046 51.4962 19.689 51.2366C20.3443 50.3131 20.8317 49.308 21.0521 48.1928C21.2816 47.0308 21.3565 45.8598 21.2351 44.6721C21.1226 43.5765 20.7837 42.6182 19.8675 41.9497C19.2167 41.4759 18.5479 41.0231 17.8251 40.5176C18.2135 40.6428 18.5659 40.7092 18.8763 40.8632C19.7805 41.3083 20.7927 40.7168 20.7927 39.7042C20.7942 38.1574 20.7807 36.6105 20.7687 35.0637C20.7642 34.5084 20.6128 34.4118 20.1089 34.6261C19.836 34.7423 19.6965 34.6457 19.758 34.3439C19.7985 34.1402 19.932 33.9576 19.9964 33.7569C20.2739 32.8891 20.5858 32.0274 20.7972 31.1431C21.0086 30.2573 21.1226 29.3473 21.2651 28.4464C21.3145 28.137 21.319 27.8201 21.352 27.5077C21.505 26.0922 21.5275 24.6767 21.3595 23.2611C21.289 22.656 21.2351 22.0509 21.1736 21.4457C21.0131 21.6132 20.9127 21.7958 20.8362 21.9875C20.5783 22.6364 20.2694 23.2445 19.6545 23.6324C19.1072 23.9795 18.5449 24.3039 18.023 24.6872C17.7111 24.9181 17.3857 25.1973 17.2088 25.5308C16.9644 25.9896 17.0903 26.5027 17.3722 26.9267C17.7531 27.5002 18.176 28.0435 18.5824 28.5988C20.0324 30.3327 19.0052 29.7548 18.9393 29.6748C18.251 28.8327 17.5342 28.0103 16.9119 27.1199C16.2386 26.1571 16.4515 25.1068 17.4442 24.4488C17.9106 24.1394 18.3754 23.8225 18.8643 23.5524C19.6545 23.1148 20.1704 22.4281 20.4178 21.6057C20.9262 19.9246 21.0146 18.2268 20.2139 16.5834C19.773 15.681 19.0142 15.106 18.0995 14.8495C16.7334 14.4662 15.4003 14.7378 14.1692 15.4244C13.061 16.0402 12.2033 16.9064 11.7055 18.1061C11.485 18.6388 11.5795 18.8516 12.1478 18.835C13.0071 18.8093 13.7928 19.0734 14.5681 19.3858C14.6701 19.4266 14.784 19.4673 14.8125 19.659C14.8395 19.8521 14.5906 19.8129 14.4811 19.8129C13.7328 19.8068 12.9816 19.7314 12.2348 19.7691C11.2781 19.8189 10.3094 19.8793 9.37366 20.0724C8.51592 20.2505 7.67167 20.5357 6.90091 21.0036C5.67428 21.7505 4.86602 22.7481 4.79854 24.2496C4.75806 25.1354 4.83004 26.0107 5.08196 26.8588C5.21842 27.3115 5.39236 27.8171 5.90371 27.9529C6.47654 28.1038 7.07485 28.1898 7.66568 28.2245C8.5699 28.2759 9.45313 28.1446 10.2884 27.7522C11.0621 27.39 11.8419 27.0369 12.6307 26.7094C12.8691 26.6113 13.115 26.3321 13.4569 26.5932C13.2425 26.7622 13.0685 26.9222 12.8736 27.049C12.1238 27.5394 11.3606 28.0057 10.6168 28.5037C10.0829 28.8614 10.1084 29.0757 10.5763 29.5088C11.0427 29.9389 11.4745 30.4112 11.8944 30.8896C12.0608 31.0767 12.1403 31.3287 11.8419 31.5476C11.7189 31.4449 11.5975 31.3589 11.4955 31.2533C11.2166 30.9666 10.9542 30.6617 10.6693 30.381C9.29718 29.0289 7.64168 28.5037 5.77025 28.8569C4.42966 29.1104 3.22552 29.7216 2.25232 30.7145C0.997197 31.9958 0.16195 33.4852 0.0809744 35.3278C0.0164939 36.7781 0.229429 38.1906 0.857739 39.4989C1.12166 40.0483 1.55803 40.5191 1.94341 41.0035C2.10836 41.2118 2.10686 41.3446 1.95841 41.5589C1.34509 42.4553 0.845743 43.4015 0.499348 44.4488C0.188942 45.3919 0.0374876 46.3336 0.00449758 47.319C-0.0374897 48.6501 0.212934 49.9011 0.82175 51.0797C1.35709 52.1179 2.16084 52.8966 3.15654 53.4807C3.51493 53.6919 3.93931 53.5395 4.03678 53.1668C4.15224 52.7231 4.26471 52.2764 4.38017 51.8312C4.45965 51.5264 4.54062 51.2231 4.63359 50.8684C5.04147 51.4811 5.48984 51.1325 5.9322 50.9786C5.82273 51.1476 5.70877 51.2729 5.58881 51.3921C4.9425 52.0349 4.49864 52.8197 4.21222 53.6648C3.92131 54.5204 3.83134 55.4304 3.91681 56.3419C4.01278 57.3515 4.2962 58.3067 4.86303 59.1488C5.58581 60.2172 6.49753 61.0472 7.76914 61.4426C8.38396 61.6343 8.98378 61.6946 9.60759 61.6237C9.74405 61.6086 9.885 61.5271 10.0005 61.4411C10.5283 61.0487 10.7757 60.4587 11.0382 59.8852C11.1551 59.6272 11.677 57.9098 11.7849 57.6472C11.8149 57.6563 11.3096 60.012 11.2451 60.4557C11.0367 61.8787 11.3351 63.1569 12.3293 64.2299C12.8886 64.832 13.5244 65.3149 14.3117 65.6017C14.973 65.8431 15.6268 66.0649 16.3375 65.9835C16.606 65.9533 16.8669 65.8491 17.1353 65.8009C17.9046 65.665 18.5959 65.3255 19.2332 64.9045C20.9157 63.7953 21.6684 62.1323 21.8364 60.1795C21.9084 59.3555 21.8859 58.5195 21.8529 57.6925C21.7959 56.2891 21.6999 54.8871 21.6115 53.4852ZM9.38565 34.5582C10.1354 35.0109 11.1851 36.52 11.1851 36.9727C11.1851 37.4255 10.8852 37.2745 10.5853 37.1236C10.2854 36.9727 9.68556 35.2177 8.93579 34.8872C8.18602 34.5582 6.68647 34.4073 6.68647 34.4073C6.68647 34.4073 8.63588 34.1055 9.38565 34.5582ZM10.1354 46.0273C9.2357 45.8764 7.73615 45.8764 7.5862 45.5745C7.43625 45.2727 8.48593 45.4236 8.63588 44.9709C8.78584 44.5182 6.83643 42.2545 7.43625 41.5C7.52922 41.3823 8.03606 43.3109 9.53561 44.6691C11.0352 46.0273 12.6847 46.6309 12.6847 47.3854C12.6847 47.6873 11.0352 46.1782 10.1354 46.0273ZM15.9837 35.7655C14.6341 37.8782 12.0848 37.2745 12.0848 37.2745C12.0848 37.2745 14.934 36.8218 15.6837 35.3127C16.417 33.8368 15.5728 31.3514 15.5353 31.2412C15.5983 31.3257 17.3093 33.6905 15.9837 35.7655ZM17.4832 58.8545C17.3332 58.8545 17.0333 57.9491 16.8834 57.6472C16.7334 57.3454 16.7334 56.7418 16.7334 56.44C16.7334 56.44 17.3332 57.4963 17.4832 57.9491C17.6332 58.4018 17.6332 58.8545 17.4832 58.8545Z" fill="white"/>
<path d="M27.8302 65.0418C30.3976 65.0418 32.4788 62.9473 32.4788 60.3636C32.4788 57.7799 30.3976 55.6854 27.8302 55.6854C25.2629 55.6854 23.1816 57.7799 23.1816 60.3636C23.1816 62.9473 25.2629 65.0418 27.8302 65.0418Z" fill="white"/>
<path d="M36.8273 60.6654C39.3946 60.6654 41.4759 58.5709 41.4759 55.9873C41.4759 53.4036 39.3946 51.3091 36.8273 51.3091C34.26 51.3091 32.1787 53.4036 32.1787 55.9873C32.1787 58.5709 34.26 60.6654 36.8273 60.6654Z" fill="white"/>
<path d="M26.9306 54.629C28.7111 54.629 30.1546 53.1763 30.1546 51.3844C30.1546 49.5925 28.7111 48.1399 26.9306 48.1399C25.15 48.1399 23.7065 49.5925 23.7065 51.3844C23.7065 53.1763 25.15 54.629 26.9306 54.629Z" fill="white"/>
<path d="M32.2536 48.8945C34.0756 48.8945 35.5526 47.4081 35.5526 45.5745C35.5526 43.7409 34.0756 42.2545 32.2536 42.2545C30.4316 42.2545 28.9546 43.7409 28.9546 45.5745C28.9546 47.4081 30.4316 48.8945 32.2536 48.8945Z" fill="white"/>
<path d="M26.1805 46.0273C27.4227 46.0273 28.4298 45.0138 28.4298 43.7636C28.4298 42.5135 27.4227 41.5 26.1805 41.5C24.9382 41.5 23.9312 42.5135 23.9312 43.7636C23.9312 45.0138 24.9382 46.0273 26.1805 46.0273Z" fill="white"/>
<path d="M26.6304 39.5382C27.9141 39.5382 28.9547 38.4909 28.9547 37.1991C28.9547 35.9072 27.9141 34.86 26.6304 34.86C25.3468 34.86 24.3062 35.9072 24.3062 37.1991C24.3062 38.4909 25.3468 39.5382 26.6304 39.5382Z" fill="white"/>
<path d="M41.4007 28.5218C42.3531 28.5218 43.1252 27.7448 43.1252 26.7864C43.1252 25.8279 42.3531 25.0509 41.4007 25.0509C40.4483 25.0509 39.6763 25.8279 39.6763 26.7864C39.6763 27.7448 40.4483 28.5218 41.4007 28.5218Z" fill="white"/>
<path d="M34.6529 18.1091C35.9366 18.1091 36.9772 17.0618 36.9772 15.77C36.9772 14.4782 35.9366 13.4309 34.6529 13.4309C33.3692 13.4309 32.3286 14.4782 32.3286 15.77C32.3286 17.0618 33.3692 18.1091 34.6529 18.1091Z" fill="white"/>
<path d="M33.1537 10.4127C34.1061 10.4127 34.8782 9.63569 34.8782 8.67722C34.8782 7.71876 34.1061 6.94177 33.1537 6.94177C32.2013 6.94177 31.4292 7.71876 31.4292 8.67722C31.4292 9.63569 32.2013 10.4127 33.1537 10.4127Z" fill="white"/>
<path d="M28.8048 12.6763C29.7158 12.6763 30.4543 11.9331 30.4543 11.0163C30.4543 10.0995 29.7158 9.35632 28.8048 9.35632C27.8938 9.35632 27.1553 10.0995 27.1553 11.0163C27.1553 11.9331 27.8938 12.6763 28.8048 12.6763Z" fill="white"/>
<path d="M21.5321 9.3564C22.4845 9.3564 23.2566 8.57941 23.2566 7.62095C23.2566 6.66249 22.4845 5.8855 21.5321 5.8855C20.5797 5.8855 19.8076 6.66249 19.8076 7.62095C19.8076 8.57941 20.5797 9.3564 21.5321 9.3564Z" fill="white"/>
<path d="M28.0548 5.73452C28.5931 5.73452 29.0295 5.29535 29.0295 4.75361C29.0295 4.21187 28.5931 3.77271 28.0548 3.77271C27.5165 3.77271 27.0801 4.21187 27.0801 4.75361C27.0801 5.29535 27.5165 5.73452 28.0548 5.73452Z" fill="white"/>
<path d="M23.7061 1.96182C24.2445 1.96182 24.6809 1.52265 24.6809 0.980908C24.6809 0.439167 24.2445 0 23.7061 0C23.1678 0 22.7314 0.439167 22.7314 0.980908C22.7314 1.52265 23.1678 1.96182 23.7061 1.96182Z" fill="white"/>
<path d="M26.5554 32.4454C28.8329 32.4454 30.6791 30.5874 30.6791 28.2954C30.6791 26.0034 28.8329 24.1454 26.5554 24.1454C24.2779 24.1454 22.4316 26.0034 22.4316 28.2954C22.4316 30.5874 24.2779 32.4454 26.5554 32.4454Z" fill="white"/>
<path d="M35.2526 28.0691C37.4473 28.0691 39.2264 26.2786 39.2264 24.07C39.2264 21.8614 37.4473 20.0709 35.2526 20.0709C33.0579 20.0709 31.2788 21.8614 31.2788 24.07C31.2788 26.2786 33.0579 28.0691 35.2526 28.0691Z" fill="white"/>
<path d="M28.0549 22.9382C30.3324 22.9382 32.1787 21.0802 32.1787 18.7882C32.1787 16.4962 30.3324 14.6382 28.0549 14.6382C25.7774 14.6382 23.9312 16.4962 23.9312 18.7882C23.9312 21.0802 25.7774 22.9382 28.0549 22.9382Z" fill="white"/>
<path d="M37.2024 42.8581C41.0534 42.8581 44.1753 39.7164 44.1753 35.8409C44.1753 31.9653 41.0534 28.8236 37.2024 28.8236C33.3514 28.8236 30.2295 31.9653 30.2295 35.8409C30.2295 39.7164 33.3514 42.8581 37.2024 42.8581Z" fill="white"/>
<path d="M40.951 50.8563C42.9386 50.8563 44.5499 49.2348 44.5499 47.2345C44.5499 45.2342 42.9386 43.6127 40.951 43.6127C38.9633 43.6127 37.3521 45.2342 37.3521 47.2345C37.3521 49.2348 38.9633 50.8563 40.951 50.8563Z" fill="white"/>
</g>
<path d="M53.6478 34.012H55.2958V35.596C55.9358 35.756 56.6238 35.836 57.2158 35.836C58.6238 35.836 59.5038 35.324 59.5038 34.028C59.5038 31.308 53.6798 32.748 53.6798 28.844C53.6798 26.492 55.4558 25.708 57.3278 25.708C58.8638 25.708 60.1598 26.092 60.9758 26.556V28.972H59.3438V27.484C58.7838 27.308 58.1598 27.18 57.4078 27.18C56.2398 27.18 55.4718 27.596 55.4718 28.668C55.4718 31.212 61.2958 29.772 61.2958 33.836C61.2958 36.348 59.4398 37.292 57.1198 37.292C55.7918 37.292 54.3518 37.036 53.6478 36.684V34.012ZM62.6266 33.068C62.6266 30.572 64.0666 28.908 66.4826 28.908C68.8506 28.908 70.2266 30.444 70.2266 32.748V33.372H64.5306C64.6266 34.78 65.4106 35.772 66.9466 35.772C68.0346 35.772 68.7546 35.436 69.2346 35.02L70.1146 36.108C69.3946 36.828 68.2266 37.292 66.7866 37.292C64.2746 37.292 62.6266 35.852 62.6266 33.068ZM66.4826 30.3C65.4746 30.3 64.8186 30.94 64.5946 32.06H68.3706C68.1786 30.924 67.5226 30.3 66.4826 30.3ZM80.6398 35.644V37.1H77.7918V32.652C77.7918 31.26 77.2158 30.588 76.2238 30.588C75.2478 30.588 74.3358 31.18 74.3358 32.732V35.644H75.3118V37.1H71.5038V35.644H72.4798V30.556H71.5038V29.1H74.0318L74.2558 30.316C74.7198 29.484 75.6158 28.908 76.7518 28.908C78.6878 28.908 79.6638 30.284 79.6638 32.556V35.644H80.6398ZM81.8018 34.572H83.3058V35.772C83.8978 35.884 84.5058 35.916 85.0818 35.916C86.1218 35.916 86.7618 35.612 86.7618 34.988C86.7618 34.444 86.3778 34.204 85.3538 33.964L84.1378 33.676C82.5218 33.292 81.7058 32.62 81.7058 31.34C81.7058 29.548 83.3058 28.908 85.0978 28.908C86.3778 28.908 87.4978 29.212 88.1058 29.516V31.692H86.6178V30.476C86.1218 30.364 85.5938 30.284 85.0818 30.284C84.2018 30.284 83.3858 30.492 83.3858 31.164C83.3858 31.58 83.6578 31.82 84.6178 32.044L85.8658 32.316C87.3698 32.636 88.4258 33.148 88.4258 34.716C88.4258 36.684 86.8258 37.292 85.0818 37.292C83.9778 37.292 82.6978 37.164 81.8018 36.828V34.572ZM89.6731 33.068C89.6731 30.604 91.2731 28.908 93.7531 28.908C96.2011 28.908 97.7851 30.604 97.7851 33.068C97.7851 35.516 96.2011 37.292 93.7531 37.292C91.2731 37.292 89.6731 35.516 89.6731 33.068ZM95.8171 33.052C95.8171 31.644 95.0971 30.572 93.7531 30.572C92.3771 30.572 91.6411 31.644 91.6411 33.068C91.6411 34.492 92.3611 35.628 93.7531 35.628C95.0811 35.628 95.8171 34.492 95.8171 33.052ZM103.21 35.644V37.1H99.0819V35.644H100.058V30.572H99.0819V29.1H101.61L101.914 30.428C102.25 29.58 102.922 28.908 103.978 28.908C104.298 28.908 104.682 28.972 105.018 29.1L104.73 30.732C104.33 30.636 104.042 30.62 103.754 30.62C102.618 30.62 101.914 31.564 101.914 33.916V35.644H103.21ZM106.568 26.684C106.568 26.076 106.984 25.58 107.72 25.58C108.44 25.58 108.872 26.076 108.872 26.684C108.872 27.292 108.44 27.772 107.72 27.772C106.984 27.772 106.568 27.292 106.568 26.684ZM105.832 30.556V29.1H108.664V35.644H109.64V37.1H105.832V35.644H106.808V30.556H105.832ZM115.872 30.556V29.1H118.72V35.644H119.696V37.1H117.168L116.944 35.98C116.464 36.78 115.504 37.308 114.464 37.308C112.656 37.308 111.536 36.108 111.536 33.724V30.556H110.56V29.1H113.392V33.708C113.392 35.084 114.08 35.628 115.024 35.628C116.192 35.628 116.848 34.716 116.848 33.708V30.556H115.872ZM126.046 37.1V35.644H127.022V32.428C127.022 31.164 126.334 30.556 125.486 30.556C124.494 30.556 123.726 31.372 123.726 32.46V35.644H124.702V37.1H120.894V35.644H121.87V30.556H120.894V29.1H123.406L123.646 30.188C124.078 29.42 124.99 28.908 125.982 28.908C127.118 28.908 127.982 29.388 128.462 30.3C129.118 29.372 129.902 28.908 131.118 28.908C133.006 28.908 133.998 30.156 133.998 32.332V35.644H134.974V37.1H131.182V35.644H132.158V32.428C132.158 31.084 131.486 30.556 130.654 30.556C129.774 30.556 129.022 31.148 128.878 32.092V35.644H129.854V37.1H126.046Z" fill="white"/>
<defs>
<clipPath id="clip0_849_388">
<rect width="44.55" height="66" fill="white"/>
</clipPath>
</defs>
</svg>
