<svg width="24" height="24" viewBox="0 0 24 24" fill="none" xmlns="http://www.w3.org/2000/svg">
<path d="M2.64814 18.0157C2.12159 18.0157 1.82785 17.3966 2.16886 16.9896L2.7079 16.3455C3.03772 15.9507 3.45028 15.6333 3.91637 15.4157C4.38246 15.1981 4.89069 15.0856 5.40508 15.0861H5.51563C6.13805 15.0883 6.74905 15.2534 7.28784 15.565C8.32179 16.1599 9.09911 16.2123 9.97018 15.7459C10.537 15.4428 10.9803 14.9178 11.2869 14.1862C11.4626 13.763 11.5808 13.3181 11.6385 12.8636C11.7557 11.8827 11.5494 11.4183 11.3108 10.8812C11.0643 10.3261 10.785 9.69725 10.8952 8.61564C10.9815 7.77074 11.3729 7.0735 11.7205 6.60515C11.2557 5.83096 10.4213 4.09625 11.0026 2.42091C11.0569 2.26427 11.1711 2.13561 11.3203 2.06323C11.4694 1.99086 11.6412 1.9807 11.7979 2.03498C11.9545 2.08927 12.0832 2.20355 12.1555 2.3527C12.2279 2.50184 12.2381 2.67363 12.1838 2.83027C11.6428 4.38921 12.9802 6.25829 12.9939 6.27704C13.0801 6.39321 13.1233 6.53566 13.1161 6.68011C13.109 6.82456 13.052 6.96207 12.9549 7.0692C12.6814 7.36841 12.215 7.98363 12.1377 8.74337C12.0596 9.49374 12.2334 9.88201 12.4521 10.3738C12.7256 10.9906 13.0381 11.6894 12.8787 13.012C12.8006 13.6624 12.4041 15.8635 10.5608 16.8482C9.30653 17.5193 8.06907 17.456 6.66559 16.6486C6.31633 16.446 5.92017 16.3383 5.51641 16.3361H5.40508C5.07348 16.3358 4.74585 16.4083 4.4454 16.5487C4.14495 16.689 3.87903 16.8937 3.66647 17.1482L3.12742 17.7919C3.06876 17.862 2.99544 17.9184 2.91263 17.957C2.82982 17.9957 2.73953 18.0157 2.64814 18.0157Z" fill="#081B25"/>
<path d="M13.1555 22H11.4708C10.4638 22.0019 9.4692 21.7783 8.55989 21.3458C7.65059 20.9132 6.84966 20.2825 6.21584 19.5001C6.02125 19.2609 5.7398 19.1085 5.43312 19.0764C5.12644 19.0442 4.81952 19.1349 4.57956 19.3286L3.04055 20.5719C2.97731 20.6282 2.90329 20.6711 2.82299 20.6979C2.74268 20.7247 2.65777 20.7349 2.57339 20.728C2.48901 20.721 2.40693 20.6969 2.33214 20.6572C2.25734 20.6176 2.19139 20.5631 2.13827 20.4972C2.08516 20.4312 2.046 20.3552 2.02316 20.2737C2.00033 20.1921 1.99429 20.1068 2.00543 20.0229C2.01657 19.939 2.04464 19.8582 2.08795 19.7854C2.13126 19.7127 2.1889 19.6495 2.25737 19.5997L3.79638 18.3567C4.29356 17.955 4.92972 17.7669 5.56542 17.8334C6.20111 17.9 6.78449 18.2158 7.18769 18.7118C7.70437 19.3495 8.35718 19.8635 9.09829 20.2162C9.8394 20.5689 10.65 20.7513 11.4708 20.75H13.1555C14.4347 20.75 16.369 20.3063 17.96 19.0614C19.9521 17.5048 20.7724 15.2225 20.7724 12.6643C20.7724 11.0163 20.7037 9.13515 20.1928 7.68129C19.6568 6.1579 18.7475 5.35479 17.3276 5.15871C15.8507 4.95442 14.7464 5.61065 14.7355 5.61729C14.6109 5.69472 14.463 5.72584 14.3177 5.7052C14.1725 5.68456 14.0391 5.61348 13.941 5.5044C13.0625 4.52787 13.3262 2.72753 13.359 2.52519C13.3855 2.36156 13.4758 2.21515 13.6103 2.11816C13.7447 2.02117 13.9121 1.98155 14.0758 2.00802C14.2394 2.03449 14.3858 2.12488 14.4828 2.2593C14.5798 2.39372 14.6194 2.56117 14.5929 2.7248C14.5285 3.1283 14.5125 3.7943 14.6621 4.27163C15.5615 3.91183 16.5387 3.79073 17.4987 3.92007C19.3799 4.18022 20.683 5.30597 21.3716 7.26646C21.9443 8.89805 22.0224 10.9109 22.0224 12.6643C22.0224 16.6373 20.2322 18.8716 18.7307 20.0469C16.4132 21.859 13.8773 22 13.1555 22Z" fill="#081B25"/>
</svg>
