<svg width="24" height="24" viewBox="0 0 24 24" fill="none" xmlns="http://www.w3.org/2000/svg">
<path d="M6.92899 19.9545C6.15442 19.9546 5.40252 19.6931 4.79516 19.2124C4.18779 18.7317 3.76056 18.06 3.5827 17.3061C2.97643 17.0667 2.43632 16.6855 2.00755 16.1945C1.57877 15.7036 1.27379 15.1171 1.11812 14.4841C0.962454 13.8511 0.960621 13.1901 1.11278 12.5562C1.26493 11.9224 1.56665 11.3342 1.9927 10.8409C1.15043 7.91356 3.36225 5 6.39183 5C7.52181 4.99907 8.61199 5.41723 9.4515 6.17359C9.52102 6.23329 9.5779 6.30628 9.61881 6.38828C9.65971 6.47028 9.68382 6.55963 9.6897 6.65108C9.69558 6.74252 9.68312 6.83422 9.65306 6.92079C9.623 7.00735 9.57593 7.08703 9.51463 7.15514C9.45334 7.22326 9.37904 7.27843 9.29612 7.31743C9.21319 7.35642 9.12331 7.37844 9.03175 7.3822C8.94019 7.38596 8.8488 7.37137 8.76296 7.33931C8.67712 7.30725 8.59855 7.25835 8.53188 7.19548C7.99436 6.71357 7.30977 6.42741 6.58919 6.38345C5.86861 6.33948 5.15431 6.54028 4.56219 6.95327C3.97007 7.36627 3.53487 7.96722 3.32719 8.65862C3.11952 9.35003 3.15156 10.0913 3.41811 10.7622C3.46966 10.8914 3.48082 11.0332 3.45013 11.1688C3.41945 11.3044 3.34835 11.4276 3.24622 11.522C1.67642 12.971 2.3309 15.5713 4.37168 16.1214C4.50657 16.1578 4.62715 16.2345 4.71735 16.3412C4.80756 16.448 4.86311 16.5796 4.87661 16.7187C4.91601 17.1184 5.07126 17.4979 5.32331 17.8107C5.57535 18.1234 5.91322 18.3558 6.29545 18.4792C6.67768 18.6027 7.08763 18.6118 7.47499 18.5056C7.86235 18.3993 8.21026 18.1823 8.47601 17.8811C8.59671 17.7443 8.76679 17.6611 8.94884 17.6498C9.13089 17.6384 9.31 17.6998 9.44677 17.8205C9.58354 17.9412 9.66675 18.1113 9.67812 18.2933C9.68948 18.4754 9.62806 18.6545 9.50736 18.7913C9.18453 19.1568 8.78772 19.4495 8.34321 19.65C7.8987 19.8506 7.41665 19.9544 6.92899 19.9545Z" fill="#081B25"/>
<path d="M10.7833 11.3733C10.6598 11.2433 10.592 11.0702 10.5943 10.8909C10.5966 10.7116 10.6688 10.5403 10.7956 10.4135C10.9224 10.2868 11.0937 10.2145 11.273 10.2122C11.4523 10.2099 11.6254 10.2778 11.7554 10.4013C11.8208 10.4649 11.9086 10.5006 11.9999 10.5006C12.0912 10.5006 12.1789 10.4649 12.2444 10.4013C12.3744 10.2778 12.5475 10.2099 12.7268 10.2122C12.9061 10.2145 13.0774 10.2868 13.2042 10.4135C13.331 10.5403 13.4032 10.7116 13.4055 10.8909C13.4078 11.0702 13.34 11.2433 13.2165 11.3733C12.8934 11.6953 12.456 11.8761 11.9999 11.8761C11.5438 11.8761 11.1063 11.6953 10.7833 11.3733Z" fill="#081B25"/>
<path d="M10.7833 14.2525C10.6598 14.1225 10.592 13.9494 10.5943 13.7701C10.5966 13.5908 10.6688 13.4195 10.7956 13.2927C10.9224 13.1659 11.0937 13.0937 11.273 13.0914C11.4523 13.0891 11.6254 13.1569 11.7554 13.2804C11.8208 13.3441 11.9086 13.3797 11.9999 13.3797C12.0912 13.3797 12.1789 13.3441 12.2444 13.2804C12.3744 13.1569 12.5475 13.0891 12.7268 13.0914C12.9061 13.0937 13.0774 13.1659 13.2042 13.2927C13.331 13.4195 13.4032 13.5908 13.4055 13.7701C13.4078 13.9494 13.34 14.1225 13.2165 14.2525C12.8934 14.5745 12.456 14.7553 11.9999 14.7553C11.5438 14.7553 11.1063 14.5745 10.7833 14.2525Z" fill="#081B25"/>
<path d="M16.1979 12.7914C16.0744 12.6614 16.0065 12.4883 16.0088 12.309C16.0111 12.1298 16.0834 11.9585 16.2102 11.8317C16.337 11.7049 16.5083 11.6326 16.6876 11.6303C16.8668 11.628 17.0399 11.6959 17.1699 11.8194C17.2354 11.8831 17.3231 11.9187 17.4144 11.9187C17.5058 11.9187 17.5935 11.8831 17.659 11.8194C17.789 11.6959 17.962 11.628 18.1413 11.6303C18.3206 11.6326 18.4919 11.7049 18.6187 11.8317C18.7455 11.9585 18.8178 12.1298 18.82 12.309C18.8223 12.4883 18.7545 12.6614 18.631 12.7914C18.308 13.1134 17.8705 13.2942 17.4144 13.2942C16.9584 13.2942 16.5209 13.1134 16.1979 12.7914Z" fill="#081B25"/>
<path d="M5.36878 12.7914C5.24528 12.6614 5.17745 12.4883 5.17974 12.309C5.18204 12.1298 5.25428 11.9585 5.38107 11.8317C5.50786 11.7049 5.67916 11.6326 5.85845 11.6303C6.03774 11.628 6.21084 11.6959 6.34083 11.8194C6.40629 11.8831 6.49401 11.9187 6.58534 11.9187C6.67667 11.9187 6.7644 11.8831 6.82986 11.8194C6.95985 11.6959 7.13295 11.628 7.31224 11.6303C7.49153 11.6326 7.66283 11.7049 7.78962 11.8317C7.9164 11.9585 7.98865 12.1298 7.99094 12.309C7.99324 12.4883 7.9254 12.6614 7.8019 12.7914C7.4789 13.1134 7.04142 13.2942 6.58534 13.2942C6.12927 13.2942 5.69179 13.1134 5.36878 12.7914Z" fill="#081B25"/>
<path d="M17.0705 19.9545C16.5828 19.9544 16.1008 19.8506 15.6562 19.65C15.2117 19.4495 14.8149 19.1568 14.4921 18.7913C14.3714 18.6545 14.31 18.4754 14.3213 18.2933C14.3327 18.1113 14.4159 17.9412 14.5527 17.8205C14.6895 17.6998 14.8686 17.6384 15.0506 17.6498C15.2327 17.6611 15.4027 17.7443 15.5234 17.8811C15.7892 18.1824 16.1371 18.3996 16.5245 18.5059C16.912 18.6123 17.322 18.6031 17.7043 18.4797C18.0866 18.3562 18.4246 18.1238 18.6766 17.811C18.9287 17.4982 19.0839 17.1185 19.1233 16.7187C19.1368 16.5796 19.1923 16.448 19.2825 16.3412C19.3727 16.2345 19.4933 16.1578 19.6282 16.1214C21.6647 15.57 22.3256 12.9728 20.755 11.5203C20.6528 11.4259 20.5817 11.3027 20.551 11.1671C20.5203 11.0314 20.5315 10.8897 20.5831 10.7605C20.8501 10.0896 20.8824 9.34803 20.6749 8.65636C20.4674 7.96469 20.0321 7.36348 19.4398 6.95037C18.8475 6.53725 18.133 6.33648 17.4122 6.38067C16.6914 6.42485 16.0067 6.7114 15.4693 7.19377C15.4026 7.25663 15.3241 7.30553 15.2382 7.33759C15.1524 7.36966 15.061 7.38424 14.9694 7.38048C14.8779 7.37672 14.788 7.3547 14.7051 7.31571C14.6221 7.27672 14.5478 7.22154 14.4865 7.15343C14.4252 7.08531 14.3782 7.00563 14.3481 6.91907C14.3181 6.8325 14.3056 6.7408 14.3115 6.64936C14.3174 6.55791 14.3415 6.46856 14.3824 6.38656C14.4233 6.30457 14.4802 6.23157 14.5497 6.17187C15.389 5.41653 16.4785 4.99903 17.6076 5C20.6406 5 22.8477 7.91786 22.0072 10.8409C22.4332 11.3342 22.735 11.9224 22.8871 12.5562C23.0393 13.1901 23.0374 13.8511 22.8818 14.4841C22.7261 15.1171 22.4211 15.7036 21.9923 16.1945C21.5636 16.6855 21.0235 17.0667 20.4172 17.3061C20.2393 18.0601 19.812 18.7319 19.2046 19.2126C18.5971 19.6933 17.8451 19.9547 17.0705 19.9545Z" fill="#081B25"/>
<path d="M12 17.8059C10.0851 17.8059 8.34211 17.0444 7.55958 15.8657C7.50963 15.7905 7.475 15.7061 7.45764 15.6175C7.44029 15.5289 7.44056 15.4377 7.45843 15.3492C7.49454 15.1705 7.60017 15.0134 7.75209 14.9125C7.90402 14.8117 8.08979 14.7753 8.26854 14.8114C8.44728 14.8475 8.60437 14.9531 8.70523 15.1051C9.14356 15.7651 10.3322 16.4308 12 16.4308C13.6677 16.4308 14.8564 15.7651 15.2947 15.1051C15.3956 14.9531 15.5526 14.8475 15.7314 14.8114C15.9101 14.7753 16.0959 14.8117 16.2478 14.9125C16.3997 15.0134 16.5054 15.1705 16.5415 15.3492C16.5776 15.528 16.5412 15.7138 16.4403 15.8657C15.6578 17.0444 13.9148 17.8059 12 17.8059Z" fill="#081B25"/>
<path d="M15.8675 10.1567C15.754 10.1568 15.6423 10.1288 15.5423 10.0752C15.4422 10.0216 15.357 9.94404 15.2943 9.84949C14.8564 9.18943 13.6677 8.52378 12 8.52378C10.3322 8.52378 9.14356 9.18943 8.70524 9.84949C8.65529 9.92472 8.59102 9.98937 8.51609 10.0398C8.44116 10.0901 8.35705 10.1253 8.26854 10.1432C8.18003 10.161 8.08887 10.1613 8.00026 10.1439C7.91165 10.1266 7.82732 10.092 7.7521 10.042C7.60017 9.94115 7.49454 9.78406 7.45844 9.60531C7.42233 9.42657 7.45872 9.2408 7.55958 9.08887C8.34211 7.91013 10.0851 7.14865 12 7.14865C13.9148 7.14865 15.6578 7.91013 16.4403 9.08887C16.5091 9.19246 16.5485 9.31276 16.5543 9.43697C16.5602 9.56117 16.5322 9.68463 16.4734 9.7942C16.4147 9.90377 16.3273 9.99535 16.2206 10.0592C16.1139 10.123 15.9919 10.1568 15.8675 10.1567Z" fill="#081B25"/>
</svg>
