<svg width="24" height="24" viewBox="0 0 24 24" fill="none" xmlns="http://www.w3.org/2000/svg">
<path d="M6.375 17.8984C3.42656 17.8984 2 14.9723 2 12C2 9.02773 3.42891 6.10156 6.375 6.10156C6.93105 6.10137 7.47394 6.2707 7.93127 6.58698C8.3886 6.90326 8.73864 7.35145 8.93471 7.87179C9.13077 8.39212 9.16354 8.95986 9.02864 9.4993C8.89374 10.0387 8.59759 10.5242 8.17969 10.891C8.32932 11.2416 8.40646 11.6188 8.40646 12C8.40646 12.3812 8.32932 12.7584 8.17969 13.109C8.59759 13.4758 8.89374 13.9613 9.02864 14.5007C9.16354 15.0401 9.13077 15.6079 8.93471 16.1282C8.73864 16.6485 8.3886 17.0967 7.93127 17.413C7.47394 17.7293 6.93105 17.8986 6.375 17.8984ZM6.375 7.35156C4.17031 7.35156 3.25 9.79531 3.25 12C3.25 14.2047 4.17031 16.6484 6.375 16.6484C6.70695 16.6486 7.02937 16.5374 7.29074 16.3328C7.5521 16.1281 7.73732 15.8418 7.8168 15.5195C7.89629 15.1972 7.86545 14.8575 7.7292 14.5548C7.59296 14.2521 7.35919 14.0038 7.06523 13.8496C6.98556 13.8077 6.91586 13.7491 6.86092 13.6778C6.80598 13.6065 6.7671 13.5242 6.74692 13.4365C6.72674 13.3488 6.72575 13.2577 6.74401 13.1696C6.76227 13.0814 6.79936 12.9983 6.85273 12.9258C7.05009 12.6575 7.15653 12.3331 7.15653 12C7.15653 11.6669 7.05009 11.3425 6.85273 11.0742C6.79936 11.0017 6.76227 10.9186 6.74401 10.8304C6.72575 10.7423 6.72674 10.6512 6.74692 10.5635C6.7671 10.4758 6.80598 10.3935 6.86092 10.3222C6.91586 10.2509 6.98556 10.1923 7.06523 10.1504C7.35919 9.99617 7.59296 9.74787 7.7292 9.44516C7.86545 9.14245 7.89629 8.80281 7.8168 8.48052C7.73732 8.15822 7.5521 7.87187 7.29074 7.66721C7.02937 7.46256 6.70695 7.35143 6.375 7.35156Z" fill="white"/>
<path d="M5.00776 10.5156C4.91568 10.5158 4.8247 10.4955 4.74134 10.4564C4.65797 10.4173 4.58428 10.3603 4.52554 10.2893C4.46679 10.2184 4.42444 10.1354 4.40152 10.0462C4.37859 9.95704 4.37565 9.86389 4.39292 9.77343C4.57378 8.82461 5.29917 8.38359 5.69917 8.27226L6.03355 9.47695L6.04683 9.47304C5.98941 9.49218 5.69526 9.60781 5.62105 10.007C5.59396 10.1499 5.51789 10.2789 5.40595 10.3717C5.29401 10.4645 5.15319 10.5154 5.00776 10.5156Z" fill="white"/>
<path d="M13.0547 22C12.8889 22 12.73 21.9342 12.6127 21.8169C12.4955 21.6997 12.4297 21.5408 12.4297 21.375V2.625C12.4297 2.45924 12.4955 2.30027 12.6127 2.18306C12.73 2.06585 12.8889 2 13.0547 2C13.2204 2 13.3794 2.06585 13.4966 2.18306C13.6138 2.30027 13.6797 2.45924 13.6797 2.625V21.375C13.6797 21.5408 13.6138 21.6997 13.4966 21.8169C13.3794 21.9342 13.2204 22 13.0547 22Z" fill="white"/>
<path d="M10.9453 22C10.7796 22 10.6206 21.9342 10.5034 21.8169C10.3862 21.6997 10.3203 21.5408 10.3203 21.375V2.625C10.3203 2.45924 10.3862 2.30027 10.5034 2.18306C10.6206 2.06585 10.7796 2 10.9453 2C11.1111 2 11.27 2.06585 11.3873 2.18306C11.5045 2.30027 11.5703 2.45924 11.5703 2.625V21.375C11.5703 21.5408 11.5045 21.6997 11.3873 21.8169C11.27 21.9342 11.1111 22 10.9453 22Z" fill="white"/>
<path d="M10.9451 16.1016C10.7794 16.1016 10.6204 16.0357 10.5032 15.9185C10.386 15.8013 10.3201 15.6423 10.3201 15.4766C10.3195 14.9173 10.0971 14.3811 9.70161 13.9857C9.30616 13.5902 8.76999 13.3678 8.21074 13.3672H7.65137C7.48561 13.3672 7.32664 13.3013 7.20943 13.1841C7.09222 13.0669 7.02637 12.9079 7.02637 12.7422C7.02637 12.5764 7.09222 12.4175 7.20943 12.3002C7.32664 12.183 7.48561 12.1172 7.65137 12.1172H8.21074C9.10139 12.1182 9.95526 12.4725 10.585 13.1023C11.2148 13.732 11.5691 14.5859 11.5701 15.4766C11.5701 15.6423 11.5043 15.8013 11.3871 15.9185C11.2698 16.0357 11.1109 16.1016 10.9451 16.1016Z" fill="white"/>
<path d="M8.83574 11.1016H7.7002C7.53444 11.1016 7.37546 11.0357 7.25825 10.9185C7.14104 10.8013 7.0752 10.6423 7.0752 10.4766C7.0752 10.3108 7.14104 10.1518 7.25825 10.0346C7.37546 9.91741 7.53444 9.85156 7.7002 9.85156H8.83574C9.22942 9.85156 9.60698 9.69517 9.88535 9.4168C10.1637 9.13842 10.3201 8.76087 10.3201 8.36719C10.3201 8.20143 10.386 8.04246 10.5032 7.92525C10.6204 7.80804 10.7794 7.74219 10.9451 7.74219C11.1109 7.74219 11.2698 7.80804 11.3871 7.92525C11.5043 8.04246 11.5701 8.20143 11.5701 8.36719C11.5693 9.09213 11.2809 9.78715 10.7683 10.2998C10.2557 10.8124 9.56069 11.1007 8.83574 11.1016Z" fill="white"/>
<path d="M17.625 17.8984C17.0689 17.8986 16.526 17.7293 16.0687 17.413C15.6114 17.0967 15.2613 16.6485 15.0653 16.1282C14.8692 15.6079 14.8364 15.0401 14.9713 14.5007C15.1062 13.9613 15.4024 13.4758 15.8203 13.109C15.6707 12.7584 15.5935 12.3812 15.5935 12C15.5935 11.6188 15.6707 11.2416 15.8203 10.891C15.4024 10.5242 15.1062 10.0387 14.9713 9.4993C14.8364 8.95986 14.8692 8.39212 15.0653 7.87179C15.2613 7.35145 15.6114 6.90326 16.0687 6.58698C16.526 6.2707 17.0689 6.10137 17.625 6.10156C20.5734 6.10156 22 9.02773 22 12C22 14.9723 20.5711 17.8984 17.625 17.8984ZM17.625 7.35156C17.293 7.35143 16.9706 7.46256 16.7092 7.66721C16.4479 7.87187 16.2627 8.15822 16.1832 8.48052C16.1037 8.80281 16.1345 9.14245 16.2708 9.44516C16.407 9.74787 16.6408 9.99617 16.9347 10.1504C17.0144 10.1923 17.0841 10.2509 17.1391 10.3222C17.194 10.3935 17.2329 10.4758 17.2531 10.5635C17.2732 10.6512 17.2742 10.7423 17.256 10.8304C17.2377 10.9186 17.2006 11.0017 17.1472 11.0742C16.9499 11.3425 16.8434 11.6669 16.8434 12C16.8434 12.3331 16.9499 12.6575 17.1472 12.9258C17.2006 12.9983 17.2377 13.0814 17.256 13.1696C17.2742 13.2577 17.2732 13.3488 17.2531 13.4365C17.2329 13.5242 17.194 13.6065 17.1391 13.6778C17.0841 13.7491 17.0144 13.8077 16.9347 13.8496C16.6408 14.0038 16.407 14.2521 16.2708 14.5548C16.1345 14.8575 16.1037 15.1972 16.1832 15.5195C16.2627 15.8418 16.4479 16.1281 16.7092 16.3328C16.9706 16.5374 17.293 16.6486 17.625 16.6484C19.8297 16.6484 20.75 14.2047 20.75 12C20.75 9.79531 19.8297 7.35156 17.625 7.35156Z" fill="white"/>
<path d="M18.9922 10.5156C18.8469 10.5155 18.7061 10.4647 18.5942 10.372C18.4823 10.2793 18.4062 10.1505 18.3789 10.0078C18.3031 9.60859 18.0105 9.49296 17.9531 9.47382L17.9664 9.47773L18.3008 8.27304C18.7008 8.38437 19.4262 8.82538 19.607 9.77421C19.6242 9.86461 19.6211 9.95767 19.5981 10.0468C19.5752 10.1359 19.5328 10.2188 19.4741 10.2896C19.4153 10.3604 19.3417 10.4174 19.2584 10.4565C19.1751 10.4955 19.0842 10.5157 18.9922 10.5156Z" fill="white"/>
<path d="M13.0547 16.1016C12.8889 16.1016 12.73 16.0357 12.6127 15.9185C12.4955 15.8013 12.4297 15.6423 12.4297 15.4766C12.4307 14.5859 12.785 13.732 13.4148 13.1023C14.0445 12.4725 14.8984 12.1182 15.7891 12.1172H16.3484C16.5142 12.1172 16.6732 12.183 16.7904 12.3002C16.9076 12.4175 16.9734 12.5764 16.9734 12.7422C16.9734 12.9079 16.9076 13.0669 16.7904 13.1841C16.6732 13.3013 16.5142 13.3672 16.3484 13.3672H15.7891C15.2298 13.3678 14.6936 13.5902 14.2982 13.9857C13.9027 14.3811 13.6803 14.9173 13.6797 15.4766C13.6797 15.6423 13.6138 15.8013 13.4966 15.9185C13.3794 16.0357 13.2204 16.1016 13.0547 16.1016Z" fill="white"/>
<path d="M16.2996 11.1016H15.1641C14.4391 11.1007 13.7441 10.8124 13.2315 10.2998C12.7189 9.78715 12.4305 9.09213 12.4297 8.36719C12.4297 8.20143 12.4955 8.04246 12.6127 7.92525C12.73 7.80804 12.8889 7.74219 13.0547 7.74219C13.2204 7.74219 13.3794 7.80804 13.4966 7.92525C13.6138 8.04246 13.6797 8.20143 13.6797 8.36719C13.6797 8.76087 13.8361 9.13842 14.1145 9.4168C14.3928 9.69517 14.7704 9.85156 15.1641 9.85156H16.2996C16.4654 9.85156 16.6243 9.91741 16.7416 10.0346C16.8588 10.1518 16.9246 10.3108 16.9246 10.4766C16.9246 10.6423 16.8588 10.8013 16.7416 10.9185C16.6243 11.0357 16.4654 11.1016 16.2996 11.1016Z" fill="white"/>
</svg>
