<svg width="24" height="24" viewBox="0 0 24 24" fill="none" xmlns="http://www.w3.org/2000/svg">
<g id="Heart">
<g id="Heart_2">
<path id="Vector" d="M5.85265 16.6891C5.62846 16.6893 5.40652 16.6443 5.20007 16.5569C4.99362 16.4695 4.80687 16.3415 4.65095 16.1804C4.49503 16.0193 4.37314 15.8284 4.29252 15.6192C4.21191 15.4101 4.17422 15.1868 4.18172 14.9627L4.28754 11.7122C4.29525 11.4738 4.26088 11.2358 4.18601 11.0093C3.39916 8.62731 5.2095 6.19414 7.71687 6.26287C7.83725 6.26617 7.95412 6.3042 8.05339 6.37237C8.15267 6.44054 8.23013 6.53595 8.27645 6.64711L9.25933 9.00609C9.52044 9.6325 9.57951 10.3248 9.4283 10.9864C9.2771 11.648 8.92316 12.2459 8.41586 12.6967C8.25873 12.8383 8.13426 13.0125 8.05106 13.207C7.96786 13.4015 7.92791 13.6118 7.93398 13.8232L7.94375 14.3496C7.95463 14.9182 7.75537 15.4707 7.38414 15.9015C7.01292 16.3322 6.49583 16.6108 5.93192 16.684C5.90563 16.6874 5.87915 16.6891 5.85265 16.6891ZM7.29162 7.53276C5.89326 7.72019 4.89047 9.15917 5.37234 10.6177C5.49356 10.9834 5.54909 11.3677 5.53634 11.7528L5.43052 15.0033C5.42651 15.1117 5.46434 15.2174 5.53617 15.2986C5.608 15.3798 5.70831 15.4303 5.81633 15.4395C6.06603 15.3963 6.29201 15.2652 6.45333 15.0697C6.61465 14.8743 6.70064 14.6276 6.69572 14.3742L6.68635 13.8478C6.67671 13.4563 6.752 13.0674 6.90704 12.7077C7.06209 12.3481 7.2932 12.0263 7.58449 11.7646C7.89728 11.4865 8.11552 11.1179 8.20876 10.7099C8.302 10.3019 8.2656 9.87503 8.10463 9.48875L7.29162 7.53276Z" fill="white"/>
<path id="Vector_2" d="M10.5986 21.9998C10.0372 21.9996 9.48402 21.8649 8.98531 21.6072C8.4866 21.3495 8.05683 20.9761 7.73193 20.5183L7.41641 20.0735C7.23897 19.8226 7.01214 19.6107 6.74983 19.4507L6.08599 19.0453C5.35045 18.5963 4.80587 17.8923 4.55603 17.0675C4.29166 16.1967 4.18506 15.8894 4.18506 14.9709C4.18506 14.8052 4.25088 14.6463 4.36806 14.5291C4.48523 14.4119 4.64415 14.3461 4.80985 14.3461C4.97556 14.3461 5.13447 14.4119 5.25165 14.5291C5.36882 14.6463 5.43464 14.8052 5.43464 14.9709C5.43464 15.7316 5.51977 15.9405 5.75212 16.7043C5.91341 17.2354 6.26434 17.6886 6.73812 17.9777L7.40196 18.3831C7.80885 18.6311 8.16074 18.9597 8.43599 19.3488L8.75151 19.7935C8.96054 20.089 9.23734 20.33 9.5587 20.4965C9.88006 20.6629 10.2366 20.7499 10.5986 20.7502C11.1888 20.751 11.77 20.605 12.2899 20.3256C12.8098 20.0461 13.2522 19.6419 13.5772 19.1492L14.3996 17.9059C15.8722 15.68 16.356 12.7837 15.4665 10.1003L14.7983 8.46019C14.7674 8.38419 14.7516 8.30283 14.7521 8.22077C14.7526 8.1387 14.7692 8.05753 14.801 7.98189C14.8653 7.82913 14.9877 7.70817 15.1412 7.64561C15.2172 7.61464 15.2985 7.59894 15.3806 7.59941C15.4627 7.59987 15.5438 7.6165 15.6195 7.64834C15.7722 7.71263 15.8932 7.83498 15.9558 7.98847C16.6883 9.78748 16.636 9.65705 16.6458 9.68595C17.6653 12.74 17.1284 16.0456 15.4415 18.5959L14.6195 19.8392C14.1806 20.5042 13.5835 21.0497 12.8816 21.4269C12.1798 21.804 11.3953 22.0009 10.5986 21.9998Z" fill="white"/>
<path id="Vector_3" d="M10.511 14.8147C10.3965 14.8146 10.2842 14.7831 10.1864 14.7235C10.0886 14.6639 10.0091 14.5786 9.95651 14.4769C9.90391 14.3752 9.88029 14.2609 9.88821 14.1467C9.89613 14.0325 9.9353 13.9226 10.0014 13.8291L10.5368 13.0723C10.821 12.667 10.9333 12.1657 10.8492 11.6779C10.754 11.1311 10.8067 10.5687 11.002 10.0492C11.1973 9.5296 11.5279 9.07172 11.9598 8.72299C12.6334 8.17846 13.4462 7.8335 14.3059 7.72723L17.9101 7.27972L17.7606 5.82825L11.4896 6.20078C10.8926 6.23571 10.3073 6.38137 9.76362 6.63033L7.95914 7.45505C7.8843 7.49082 7.80308 7.51133 7.72023 7.51537C7.63738 7.51942 7.55456 7.50694 7.47658 7.47864C7.39861 7.45034 7.32705 7.4068 7.26609 7.35055C7.20512 7.29431 7.15596 7.22649 7.12148 7.15104C7.087 7.0756 7.06789 6.99405 7.06526 6.91114C7.06263 6.82823 7.07653 6.74563 7.10616 6.66816C7.13579 6.59068 7.18055 6.51988 7.23783 6.45988C7.29511 6.39989 7.36376 6.3519 7.43978 6.31871L9.24426 5.4936C9.92818 5.18032 10.6644 4.99705 11.4154 4.95315L18.2838 4.54469C18.4446 4.53509 18.6028 4.58793 18.7256 4.69219C18.8483 4.79645 18.9261 4.94408 18.9426 5.10427L19.2159 7.75964C19.2331 7.92228 19.1857 8.08516 19.0841 8.21329C18.9825 8.34142 18.8346 8.4246 18.6724 8.44496L14.4597 8.96744C13.8314 9.04531 13.2375 9.29745 12.745 9.69532C12.4868 9.90389 12.289 10.1778 12.1723 10.4885C12.0555 10.7993 12.0241 11.1357 12.0812 11.4627C12.2213 12.2786 12.0326 13.1168 11.5564 13.794L11.021 14.5507C10.9633 14.6323 10.8869 14.6989 10.7981 14.7448C10.7094 14.7907 10.6109 14.8147 10.511 14.8147Z" fill="white"/>
<path id="Vector_4" d="M10.277 17.4142L9.02739 17.3697V17.3775C9.02739 17.3072 9.01528 16.682 8.38307 16.4013C7.62981 16.0666 7.10068 15.7167 6.76564 15.3317C6.66358 15.206 6.61434 15.0455 6.62831 14.8841C6.64227 14.7228 6.71835 14.5731 6.8405 14.4668C6.96266 14.3604 7.12133 14.3057 7.28308 14.314C7.44483 14.3224 7.597 14.3933 7.70751 14.5117C7.852 14.6776 8.17611 14.9412 8.89071 15.2603C10.0274 15.7644 10.2965 16.8515 10.277 17.4142Z" fill="white"/>
<path id="Vector_5" d="M13.5987 13.5389C13.5885 13.4351 13.5108 12.9118 12.9739 12.8126C12.5606 12.7385 12.1661 12.5833 11.8131 12.356C11.4601 12.1287 11.1556 11.8337 10.9171 11.4881C10.8681 11.4211 10.8329 11.345 10.8135 11.2642C10.7942 11.1835 10.7912 11.0997 10.8046 11.0178C10.8181 10.9358 10.8477 10.8574 10.8918 10.787C10.9359 10.7167 10.9936 10.6558 11.0615 10.608C11.1294 10.5602 11.2061 10.5264 11.2872 10.5086C11.3683 10.4908 11.4521 10.4893 11.5338 10.5043C11.6155 10.5193 11.6933 10.5504 11.7629 10.5958C11.8324 10.6412 11.8921 10.7 11.9387 10.7688C12.084 10.9822 12.2706 11.1644 12.4875 11.3044C12.7044 11.4445 12.9472 11.5396 13.2015 11.5841C14.4121 11.8079 14.8026 12.8978 14.8416 13.4425L13.5963 13.5315L13.5987 13.5389Z" fill="white"/>
<path id="Vector_6" d="M10.1507 21.8108C10.0354 21.6924 9.97177 21.5331 9.97367 21.3678C9.97558 21.2026 10.0429 21.0448 10.1608 20.9291C10.1815 20.9084 11.016 20.0548 10.868 18.9594C10.8571 18.8781 10.8622 18.7954 10.8832 18.7161C10.9042 18.6367 10.9406 18.5623 10.9903 18.497C11.0401 18.4317 11.1022 18.3769 11.1731 18.3356C11.2441 18.2944 11.3225 18.2675 11.4038 18.2565C11.4851 18.2456 11.5678 18.2507 11.6472 18.2717C11.7265 18.2927 11.8009 18.3291 11.8662 18.3788C11.9315 18.4286 11.9863 18.4907 12.0276 18.5616C12.0688 18.6326 12.0957 18.711 12.1067 18.7923C12.341 20.5292 11.0879 21.771 11.0344 21.8229C10.9756 21.8802 10.9061 21.9253 10.8298 21.9556C10.7536 21.986 10.6721 22.0011 10.59 21.9999C10.508 21.9988 10.4269 21.9815 10.3515 21.9491C10.2762 21.9166 10.2079 21.8696 10.1507 21.8108Z" fill="white"/>
<path id="Vector_7" d="M5.78893 8.13412C5.66144 8.13416 5.53699 8.09519 5.43229 8.02246C5.32759 7.94973 5.24764 7.8467 5.20318 7.72722C4.90367 6.92124 4.49756 5.94578 4.49756 4.42363V2.63126C4.49756 2.46556 4.56338 2.30664 4.68056 2.18947C4.79773 2.0723 4.95665 2.00647 5.12235 2.00647H7.62152C7.78723 2.00647 7.94614 2.0723 8.06331 2.18947C8.18049 2.30664 8.24631 2.46556 8.24631 2.63126V4.06555C8.24522 4.43476 8.39007 4.78944 8.6493 5.05233L9.44201 5.85831C9.54707 5.97844 9.60218 6.13421 9.59604 6.29368C9.5899 6.45315 9.52297 6.60422 9.40899 6.71591C9.295 6.8276 9.14259 6.89144 8.98304 6.89433C8.82348 6.89722 8.66886 6.83895 8.5509 6.73146L7.75819 5.92509C7.26919 5.42984 6.99552 4.76153 6.99673 4.06555V3.25605H5.74714V4.42363C5.74669 5.20418 5.88595 5.97851 6.15833 6.70998L6.37467 7.29143C6.40984 7.38594 6.42161 7.48755 6.40897 7.58759C6.39634 7.68763 6.35969 7.78313 6.30213 7.86593C6.24458 7.94873 6.16784 8.01637 6.07848 8.06307C5.98911 8.10977 5.88976 8.13415 5.78893 8.13412Z" fill="white"/>
<path id="Vector_8" d="M14.5226 6.01996C14.407 6.01997 14.2937 5.98793 14.1952 5.92741C14.0968 5.86688 14.0171 5.78023 13.9649 5.67711L13.738 5.22999C13.518 4.80002 13.1646 4.45288 12.7308 4.24051C12.2969 4.02813 11.806 3.96195 11.3314 4.05187C9.69486 4.36817 10.2021 4.31506 7.63109 4.34942C7.54904 4.3505 7.46759 4.33541 7.39137 4.305C7.31516 4.2746 7.24568 4.22948 7.1869 4.17222C7.12812 4.11497 7.08119 4.0467 7.0488 3.9713C7.0164 3.89591 6.99918 3.81488 6.9981 3.73283C6.99702 3.65078 7.01212 3.56932 7.04252 3.49311C7.07293 3.41689 7.11804 3.34741 7.1753 3.28863C7.23256 3.22986 7.30083 3.18293 7.37622 3.15054C7.45161 3.11814 7.53264 3.10092 7.61469 3.09984C10.1267 3.06626 9.56287 3.12093 11.0944 2.82649C11.8357 2.68583 12.6027 2.78913 13.2804 3.12091C13.9581 3.45269 14.5101 3.9951 14.8537 4.6669L15.0802 5.11245C15.1285 5.20774 15.1516 5.31383 15.1473 5.4206C15.1429 5.52736 15.1113 5.63122 15.0553 5.72226C14.9994 5.8133 14.921 5.88847 14.8278 5.94059C14.7345 5.99271 14.6294 6.02004 14.5226 6.01996Z" fill="white"/>
<path id="Vector_9" d="M13.5744 4.94259C13.455 4.82773 13.3862 4.67014 13.3829 4.5045C13.3797 4.33886 13.4424 4.17871 13.5572 4.05929L14.5917 2.97996C14.7069 2.86309 14.8636 2.79628 15.0277 2.79398C15.1918 2.79167 15.3503 2.85405 15.4688 2.96764C15.5873 3.08122 15.6564 3.23689 15.661 3.40098C15.6657 3.56506 15.6056 3.72439 15.4937 3.84452L14.4577 4.92385C14.3431 5.04345 14.1856 5.11262 14.02 5.11613C13.8543 5.11965 13.694 5.05722 13.5744 4.94259Z" fill="white"/>
<path id="Vector_10" d="M11.7798 3.87459C11.6602 3.75994 11.5911 3.60247 11.5875 3.43683C11.584 3.27118 11.6465 3.11092 11.7611 2.99129L12.5206 2.19898C12.577 2.13839 12.6449 2.08961 12.7204 2.0555C12.7958 2.02138 12.8773 2.0026 12.9601 2.00025C13.0429 1.9979 13.1253 2.01203 13.2025 2.04181C13.2798 2.07159 13.3504 2.11643 13.4101 2.17372C13.4699 2.23102 13.5177 2.29962 13.5507 2.37555C13.5838 2.45148 13.6014 2.53322 13.6025 2.61601C13.6037 2.69881 13.5884 2.78101 13.5575 2.85784C13.5266 2.93466 13.4808 3.00458 13.4226 3.06354L12.6631 3.85585C12.5485 3.97545 12.391 4.04462 12.2254 4.04813C12.0597 4.05165 11.8995 3.98923 11.7798 3.87459Z" fill="white"/>
</g>
</g>
</svg>
